<?xml version="1.0" encoding="utf-8"?>
<!-- Generator: Adobe Illustrator 27.0.0, SVG Export Plug-In . SVG Version: 6.00 Build 0)  -->
<svg version="1.1" id="Layer_1" xmlns="http://www.w3.org/2000/svg" xmlns:xlink="http://www.w3.org/1999/xlink" x="0px" y="0px"
	 viewBox="0 0 1200 900" style="enable-background:new 0 0 1200 900;" xml:space="preserve">
<style type="text/css">
	.st0{opacity:0.35;}
	.st1{fill:#97F1C4;}
	.st2{opacity:0.45;}
	.st3{opacity:0.75;fill:#ADF4D0;enable-background:new    ;}
	.st4{opacity:0.45;fill:#ADF4D0;enable-background:new    ;}
	.st5{opacity:0.25;fill:#ADF4D0;enable-background:new    ;}
	.st6{fill:#0EDF75;}
</style>
<g id="Background">
</g>
<g class="st0">
	<path class="st1" d="M462.3,390.3c-0.4,0-0.7,0-1,0.1l-24.2-41.9c0.8-0.9,1.3-2,1.3-3.3c0-2.7-2.2-4.9-4.9-4.9
		c-2.2,0-4,1.4-4.6,3.4h-48.6c-0.6-2-2.5-3.4-4.6-3.4c-2.7,0-4.9,2.2-4.9,4.9c0,1.3,0.5,2.4,1.3,3.3l-24.2,41.9
		c-0.3-0.1-0.7-0.1-1-0.1c-2.7,0-4.9,2.2-4.9,4.9c0,2.7,2.2,4.9,4.9,4.9c0.4,0,0.7,0,1-0.1l24.2,41.9c-0.8,0.9-1.3,2-1.3,3.3
		c0,2.7,2.2,4.9,4.9,4.9c2.2,0,4-1.4,4.6-3.4h48.6c0.6,2,2.5,3.4,4.6,3.4c2.7,0,4.9-2.2,4.9-4.9c0-1.3-0.5-2.4-1.3-3.3l24.2-41.9
		c0.3,0.1,0.7,0.1,1,0.1c2.7,0,4.9-2.2,4.9-4.9C467.2,392.5,465,390.3,462.3,390.3z M433.5,440.3c-2.2,0-4,1.4-4.6,3.4h-48.6
		c-0.6-2-2.5-3.4-4.6-3.4c-0.4,0-0.7,0-1,0.1l-24.2-41.9c0.8-0.9,1.3-2,1.3-3.3s-0.5-2.4-1.3-3.3l24.2-41.9c0.3,0.1,0.7,0.1,1,0.1
		c2.2,0,4-1.4,4.6-3.4h48.6c0.6,2,2.5,3.4,4.6,3.4c0.3,0,0.7,0,1-0.1l24.2,41.9c-0.8,0.9-1.3,2-1.3,3.3s0.5,2.4,1.3,3.3l-24.2,41.9
		C434.1,440.3,433.8,440.3,433.5,440.3z"/>
	<path class="st1" d="M559.5,445.2c-0.4,0-0.7,0-1,0.1l-24.2-41.9c0.8-0.9,1.3-2,1.3-3.3c0-2.7-2.2-4.9-4.9-4.9
		c-2.2,0-4,1.4-4.6,3.4h-48.6c-0.6-2-2.5-3.4-4.6-3.4c-2.7,0-4.9,2.2-4.9,4.9c0,1.3,0.5,2.4,1.3,3.3L445,445.3
		c-0.3-0.1-0.7-0.1-1-0.1c-2.7,0-4.9,2.2-4.9,4.9c0,2.7,2.2,4.9,4.9,4.9c0.4,0,0.7,0,1-0.1l24.2,41.9c-0.8,0.9-1.3,2-1.3,3.3
		c0,2.7,2.2,4.9,4.9,4.9c2.2,0,4-1.4,4.6-3.4H526c0.6,2,2.5,3.4,4.6,3.4c2.7,0,4.9-2.2,4.9-4.9c0-1.3-0.5-2.4-1.3-3.3l24.2-41.9
		c0.3,0.1,0.7,0.1,1,0.1c2.7,0,4.9-2.2,4.9-4.9C564.4,447.4,562.2,445.2,559.5,445.2z M530.7,495.2c-2.2,0-4,1.4-4.6,3.4h-48.6
		c-0.6-2-2.5-3.4-4.6-3.4c-0.4,0-0.7,0-1,0.1l-24.2-41.9c0.8-0.9,1.3-2,1.3-3.3s-0.5-2.4-1.3-3.3l24.2-41.9c0.3,0.1,0.7,0.1,1,0.1
		c2.2,0,4-1.4,4.6-3.4H526c0.6,2,2.5,3.4,4.6,3.4c0.3,0,0.7,0,1-0.1l24.2,41.9c-0.8,0.9-1.3,2-1.3,3.3s0.5,2.4,1.3,3.3l-24.2,41.9
		C531.4,495.2,531,495.2,530.7,495.2z"/>
	<path class="st1" d="M462.3,277.6c-0.4,0-0.7,0-1,0.1l-24.2-41.9c0.8-0.9,1.3-2,1.3-3.3c0-2.7-2.2-4.9-4.9-4.9
		c-2.2,0-4,1.4-4.6,3.4h-48.6c-0.6-2-2.5-3.4-4.6-3.4c-2.7,0-4.9,2.2-4.9,4.9c0,1.3,0.5,2.4,1.3,3.3l-24.2,41.9
		c-0.3-0.1-0.7-0.1-1-0.1c-2.7,0-4.9,2.2-4.9,4.9c0,2.7,2.2,4.9,4.9,4.9c0.4,0,0.7,0,1-0.1l24.2,41.9c-0.8,0.9-1.3,2-1.3,3.3
		c0,2.7,2.2,4.9,4.9,4.9c2.2,0,4-1.4,4.6-3.4h48.6c0.6,2,2.5,3.4,4.6,3.4c2.7,0,4.9-2.2,4.9-4.9c0-1.3-0.5-2.4-1.3-3.3l24.2-41.9
		c0.3,0.1,0.7,0.1,1,0.1c2.7,0,4.9-2.2,4.9-4.9C467.2,279.8,465,277.6,462.3,277.6z M433.5,327.6c-2.2,0-4,1.4-4.6,3.4h-48.6
		c-0.6-2-2.5-3.4-4.6-3.4c-0.4,0-0.7,0-1,0.1l-24.2-41.9c0.8-0.9,1.3-2,1.3-3.3s-0.5-2.4-1.3-3.3l24.2-41.9c0.3,0.1,0.7,0.1,1,0.1
		c2.2,0,4-1.4,4.6-3.4h48.6c0.6,2,2.5,3.4,4.6,3.4c0.3,0,0.7,0,1-0.1l24.2,41.9c-0.8,0.9-1.3,2-1.3,3.3s0.5,2.4,1.3,3.3l-24.2,41.9
		C434.1,327.6,433.8,327.6,433.5,327.6z"/>
	<path class="st1" d="M559.5,222.7c-0.4,0-0.7,0-1,0.1l-24.2-41.9c0.8-0.9,1.3-2,1.3-3.3c0-2.7-2.2-4.9-4.9-4.9
		c-2.2,0-4,1.4-4.6,3.4h-48.6c-0.6-2-2.5-3.4-4.6-3.4c-2.7,0-4.9,2.2-4.9,4.9c0,1.3,0.5,2.4,1.3,3.3L445,222.8
		c-0.3-0.1-0.7-0.1-1-0.1c-2.7,0-4.9,2.2-4.9,4.9s2.2,4.9,4.9,4.9c0.4,0,0.7,0,1-0.1l24.2,41.9c-0.8,0.9-1.3,2-1.3,3.3
		c0,2.7,2.2,4.9,4.9,4.9c2.2,0,4-1.4,4.6-3.4H526c0.6,2,2.5,3.4,4.6,3.4c2.7,0,4.9-2.2,4.9-4.9c0-1.3-0.5-2.4-1.3-3.3l24.2-41.9
		c0.3,0.1,0.7,0.1,1,0.1c2.7,0,4.9-2.2,4.9-4.9S562.2,222.7,559.5,222.7z M530.7,272.7c-2.2,0-4,1.4-4.6,3.4h-48.6
		c-0.6-2-2.5-3.4-4.6-3.4c-0.4,0-0.7,0-1,0.1l-24.2-41.9c0.8-0.9,1.3-2,1.3-3.3s-0.5-2.4-1.3-3.3l24.2-41.9c0.3,0.1,0.7,0.1,1,0.1
		c2.2,0,4-1.4,4.6-3.4H526c0.6,2,2.5,3.4,4.6,3.4c0.3,0,0.7,0,1-0.1l24.2,41.9c-0.8,0.9-1.3,2-1.3,3.3s0.5,2.4,1.3,3.3l-24.2,41.9
		C531.4,272.7,531,272.7,530.7,272.7z"/>
	<path class="st1" d="M657.4,390.3c-0.4,0-0.7,0-1,0.1l-24.2-41.9c0.8-0.9,1.3-2,1.3-3.3c0-2.7-2.2-4.9-4.9-4.9
		c-2.2,0-4,1.4-4.6,3.4h-48.6c-0.6-2-2.5-3.4-4.6-3.4c-2.7,0-4.9,2.2-4.9,4.9c0,1.3,0.5,2.4,1.3,3.3L543,390.4
		c-0.3-0.1-0.7-0.1-1-0.1c-2.7,0-4.9,2.2-4.9,4.9c0,2.7,2.2,4.9,4.9,4.9c0.4,0,0.7,0,1-0.1l24.2,41.9c-0.8,0.9-1.3,2-1.3,3.3
		c0,2.7,2.2,4.9,4.9,4.9c2.2,0,4-1.4,4.6-3.4H624c0.6,2,2.5,3.4,4.6,3.4c2.7,0,4.9-2.2,4.9-4.9c0-1.3-0.5-2.4-1.3-3.3l24.2-41.9
		c0.3,0.1,0.7,0.1,1,0.1c2.7,0,4.9-2.2,4.9-4.9C662.3,392.5,660.1,390.3,657.4,390.3z M628.6,440.3c-2.2,0-4,1.4-4.6,3.4h-48.6
		c-0.6-2-2.5-3.4-4.6-3.4c-0.4,0-0.7,0-1,0.1l-24.2-41.9c0.8-0.9,1.3-2,1.3-3.3s-0.5-2.4-1.3-3.3l24.2-41.9c0.3,0.1,0.7,0.1,1,0.1
		c2.2,0,4-1.4,4.6-3.4H624c0.6,2,2.5,3.4,4.6,3.4c0.3,0,0.7,0,1-0.1l24.2,41.9c-0.8,0.9-1.3,2-1.3,3.3s0.5,2.4,1.3,3.3l-24.2,41.9
		C629.2,440.3,628.9,440.3,628.6,440.3z"/>
	<path class="st1" d="M756.3,445.2c-0.4,0-0.7,0-1,0.1L731,403.4c0.8-0.9,1.3-2,1.3-3.3c0-2.7-2.2-4.9-4.9-4.9c-2.2,0-4,1.4-4.6,3.4
		h-48.6c-0.6-2-2.5-3.4-4.6-3.4c-2.7,0-4.9,2.2-4.9,4.9c0,1.3,0.5,2.4,1.3,3.3l-24.2,41.9c-0.3-0.1-0.7-0.1-1-0.1
		c-2.7,0-4.9,2.2-4.9,4.9c0,2.7,2.2,4.9,4.9,4.9c0.4,0,0.7,0,1-0.1l24.2,41.9c-0.8,0.9-1.3,2-1.3,3.3c0,2.7,2.2,4.9,4.9,4.9
		c2.2,0,4-1.4,4.6-3.4h48.6c0.6,2,2.5,3.4,4.6,3.4c2.7,0,4.9-2.2,4.9-4.9c0-1.3-0.5-2.4-1.3-3.3l24.2-41.9c0.3,0.1,0.7,0.1,1,0.1
		c2.7,0,4.9-2.2,4.9-4.9C761.2,447.4,759,445.2,756.3,445.2z M727.4,495.2c-2.2,0-4,1.4-4.6,3.4h-48.6c-0.6-2-2.5-3.4-4.6-3.4
		c-0.4,0-0.7,0-1,0.1l-24.2-41.9c0.8-0.9,1.3-2,1.3-3.3s-0.5-2.4-1.3-3.3l24.2-41.9c0.3,0.1,0.7,0.1,1,0.1c2.2,0,4-1.4,4.6-3.4h48.6
		c0.6,2,2.5,3.4,4.6,3.4c0.3,0,0.7,0,1-0.1l24.2,41.9c-0.8,0.9-1.3,2-1.3,3.3s0.5,2.4,1.3,3.3l-24.2,41.9
		C728.1,495.2,727.8,495.2,727.4,495.2z"/>
	<path class="st1" d="M855.6,613c-0.4,0-0.7,0-1,0.1l-24.2-41.9c0.8-0.9,1.3-2,1.3-3.3c0-2.7-2.2-4.9-4.9-4.9c-2.2,0-4,1.4-4.6,3.4
		h-48.6c-0.6-2-2.5-3.4-4.6-3.4c-2.7,0-4.9,2.2-4.9,4.9c0,1.3,0.5,2.4,1.3,3.3l-24.2,41.9c-0.3-0.1-0.7-0.1-1-0.1
		c-2.7,0-4.9,2.2-4.9,4.9s2.2,4.9,4.9,4.9c0.4,0,0.7,0,1-0.1l24.2,41.9c-0.8,0.9-1.3,2-1.3,3.3c0,2.7,2.2,4.9,4.9,4.9
		c2.2,0,4-1.4,4.6-3.4h48.6c0.6,2,2.5,3.4,4.6,3.4c2.7,0,4.9-2.2,4.9-4.9c0-1.3-0.5-2.4-1.3-3.3l24.2-41.9c0.3,0.1,0.7,0.1,1,0.1
		c2.7,0,4.9-2.2,4.9-4.9S858.3,613,855.6,613z M826.8,663c-2.2,0-4,1.4-4.6,3.4h-48.6c-0.6-2-2.5-3.4-4.6-3.4c-0.4,0-0.7,0-1,0.1
		l-24.2-41.9c0.8-0.9,1.3-2,1.3-3.3s-0.5-2.4-1.3-3.3l24.2-41.9c0.3,0.1,0.7,0.1,1,0.1c2.2,0,4-1.4,4.6-3.4h48.6
		c0.6,2,2.5,3.4,4.6,3.4c0.3,0,0.7,0,1-0.1l24.2,41.9c-0.8,0.9-1.3,2-1.3,3.3s0.5,2.4,1.3,3.3l-24.2,41.9
		C827.4,663,827.1,663,826.8,663z"/>
	<path class="st1" d="M954.3,670.6c-0.4,0-0.7,0-1,0.1L929,628.8c0.8-0.9,1.3-2,1.3-3.3c0-2.7-2.2-4.9-4.9-4.9c-2.2,0-4,1.4-4.6,3.4
		h-48.6c-0.6-2-2.5-3.4-4.6-3.4c-2.7,0-4.9,2.2-4.9,4.9c0,1.3,0.5,2.4,1.3,3.3l-24.2,41.9c-0.3-0.1-0.7-0.1-1-0.1
		c-2.7,0-4.9,2.2-4.9,4.9s2.2,4.9,4.9,4.9c0.4,0,0.7,0,1-0.1l24.2,41.9c-0.8,0.9-1.3,2-1.3,3.3c0,2.7,2.2,4.9,4.9,4.9
		c2.2,0,4-1.4,4.6-3.4h48.6c0.6,2,2.5,3.4,4.6,3.4c2.7,0,4.9-2.2,4.9-4.9c0-1.3-0.5-2.4-1.3-3.3l24.2-41.9c0.3,0.1,0.7,0.1,1,0.1
		c2.7,0,4.9-2.2,4.9-4.9S957,670.6,954.3,670.6z M925.4,720.6c-2.2,0-4,1.4-4.6,3.4h-48.6c-0.6-2-2.5-3.4-4.6-3.4
		c-0.4,0-0.7,0-1,0.1l-24.2-41.9c0.8-0.9,1.3-2,1.3-3.3s-0.5-2.4-1.3-3.3l24.2-41.9c0.3,0.1,0.7,0.1,1,0.1c2.2,0,4-1.4,4.6-3.4h48.6
		c0.6,2,2.5,3.4,4.6,3.4c0.3,0,0.7,0,1-0.1l24.2,41.9c-0.8,0.9-1.3,2-1.3,3.3s0.5,2.4,1.3,3.3l-24.2,41.9
		C926.1,720.7,925.8,720.6,925.4,720.6z"/>
	<path class="st1" d="M756.3,557.9c-0.4,0-0.7,0-1,0.1L731,516.1c0.8-0.9,1.3-2,1.3-3.3c0-2.7-2.2-4.9-4.9-4.9c-2.2,0-4,1.4-4.6,3.4
		h-48.6c-0.6-2-2.5-3.4-4.6-3.4c-2.7,0-4.9,2.2-4.9,4.9c0,1.3,0.5,2.4,1.3,3.3L641.7,558c-0.3-0.1-0.7-0.1-1-0.1
		c-2.7,0-4.9,2.2-4.9,4.9s2.2,4.9,4.9,4.9c0.4,0,0.7,0,1-0.1l24.2,41.9c-0.8,0.9-1.3,2-1.3,3.3c0,2.7,2.2,4.9,4.9,4.9
		c2.2,0,4-1.4,4.6-3.4h48.6c0.6,2,2.5,3.4,4.6,3.4c2.7,0,4.9-2.2,4.9-4.9c0-1.3-0.5-2.4-1.3-3.3l24.2-41.9c0.3,0.1,0.7,0.1,1,0.1
		c2.7,0,4.9-2.2,4.9-4.9C761.2,560.1,759,557.9,756.3,557.9z M727.4,607.9c-2.2,0-4,1.4-4.6,3.4h-48.6c-0.6-2-2.5-3.4-4.6-3.4
		c-0.4,0-0.7,0-1,0.1l-24.2-41.9c0.8-0.9,1.3-2,1.3-3.3s-0.5-2.4-1.3-3.3l24.2-41.9c0.3,0.1,0.7,0.1,1,0.1c2.2,0,4-1.4,4.6-3.4h48.6
		c0.6,2,2.5,3.4,4.6,3.4c0.3,0,0.7,0,1-0.1l24.2,41.9c-0.8,0.9-1.3,2-1.3,3.3s0.5,2.4,1.3,3.3L728.4,608
		C728.1,607.9,727.8,607.9,727.4,607.9z"/>
	<path class="st1" d="M756.3,670.6c-0.4,0-0.7,0-1,0.1L731,628.8c0.8-0.9,1.3-2,1.3-3.3c0-2.7-2.2-4.9-4.9-4.9c-2.2,0-4,1.4-4.6,3.4
		h-48.6c-0.6-2-2.5-3.4-4.6-3.4c-2.7,0-4.9,2.2-4.9,4.9c0,1.3,0.5,2.4,1.3,3.3l-24.2,41.9c-0.3-0.1-0.7-0.1-1-0.1
		c-2.7,0-4.9,2.2-4.9,4.9s2.2,4.9,4.9,4.9c0.4,0,0.7,0,1-0.1l24.2,41.9c-0.8,0.9-1.3,2-1.3,3.3c0,2.7,2.2,4.9,4.9,4.9
		c2.2,0,4-1.4,4.6-3.4h48.6c0.6,2,2.5,3.4,4.6,3.4c2.7,0,4.9-2.2,4.9-4.9c0-1.3-0.5-2.4-1.3-3.3l24.2-41.9c0.3,0.1,0.7,0.1,1,0.1
		c2.7,0,4.9-2.2,4.9-4.9C761.2,672.8,759,670.6,756.3,670.6z M727.4,720.6c-2.2,0-4,1.4-4.6,3.4h-48.6c-0.6-2-2.5-3.4-4.6-3.4
		c-0.4,0-0.7,0-1,0.1l-24.2-41.9c0.8-0.9,1.3-2,1.3-3.3s-0.5-2.4-1.3-3.3l24.2-41.9c0.3,0.1,0.7,0.1,1,0.1c2.2,0,4-1.4,4.6-3.4h48.6
		c0.6,2,2.5,3.4,4.6,3.4c0.3,0,0.7,0,1-0.1l24.2,41.9c-0.8,0.9-1.3,2-1.3,3.3s0.5,2.4,1.3,3.3l-24.2,41.9
		C728.1,720.7,727.8,720.6,727.4,720.6z"/>
	<path class="st1" d="M265.3,503.2c-0.4,0-0.7,0-1,0.1l-24.2-41.9c0.8-0.9,1.3-2,1.3-3.3c0-2.7-2.2-4.9-4.9-4.9
		c-2.2,0-4,1.4-4.6,3.4h-48.6c-0.6-2-2.5-3.4-4.6-3.4c-2.7,0-4.9,2.2-4.9,4.9c0,1.3,0.5,2.4,1.3,3.3l-24.2,41.9
		c-0.3-0.1-0.7-0.1-1-0.1c-2.7,0-4.9,2.2-4.9,4.9c0,2.7,2.2,4.9,4.9,4.9c0.4,0,0.7,0,1-0.1l24.2,41.9c-0.8,0.9-1.3,2-1.3,3.3
		c0,2.7,2.2,4.9,4.9,4.9c2.2,0,4-1.4,4.6-3.4h48.6c0.6,2,2.5,3.4,4.6,3.4c2.7,0,4.9-2.2,4.9-4.9c0-1.3-0.5-2.4-1.3-3.3l24.2-41.9
		c0.3,0.1,0.7,0.1,1,0.1c2.7,0,4.9-2.2,4.9-4.9C270.2,505.4,268,503.2,265.3,503.2z M236.5,553.2c-2.2,0-4,1.4-4.6,3.4h-48.6
		c-0.6-2-2.5-3.4-4.6-3.4c-0.4,0-0.7,0-1,0.1l-24.2-41.9c0.8-0.9,1.3-2,1.3-3.3s-0.5-2.4-1.3-3.3l24.2-41.9c0.3,0.1,0.7,0.1,1,0.1
		c2.2,0,4-1.4,4.6-3.4h48.6c0.6,2,2.5,3.4,4.6,3.4c0.3,0,0.7,0,1-0.1l24.2,41.9c-0.8,0.9-1.3,2-1.3,3.3s0.5,2.4,1.3,3.3l-24.2,41.9
		C237.1,553.2,236.8,553.2,236.5,553.2z"/>
	<path class="st1" d="M657.4,503.2c-0.4,0-0.7,0-1,0.1l-24.2-41.9c0.8-0.9,1.3-2,1.3-3.3c0-2.7-2.2-4.9-4.9-4.9
		c-2.2,0-4,1.4-4.6,3.4h-48.6c-0.6-2-2.5-3.4-4.6-3.4c-2.7,0-4.9,2.2-4.9,4.9c0,1.3,0.5,2.4,1.3,3.3L543,503.3
		c-0.3-0.1-0.7-0.1-1-0.1c-2.7,0-4.9,2.2-4.9,4.9c0,2.7,2.2,4.9,4.9,4.9c0.4,0,0.7,0,1-0.1l24.2,41.9c-0.8,0.9-1.3,2-1.3,3.3
		c0,2.7,2.2,4.9,4.9,4.9c2.2,0,4-1.4,4.6-3.4H624c0.6,2,2.5,3.4,4.6,3.4c2.7,0,4.9-2.2,4.9-4.9c0-1.3-0.5-2.4-1.3-3.3l24.2-41.9
		c0.3,0.1,0.7,0.1,1,0.1c2.7,0,4.9-2.2,4.9-4.9C662.3,505.4,660.1,503.2,657.4,503.2z M628.6,553.2c-2.2,0-4,1.4-4.6,3.4h-48.6
		c-0.6-2-2.5-3.4-4.6-3.4c-0.4,0-0.7,0-1,0.1l-24.2-41.9c0.8-0.9,1.3-2,1.3-3.3s-0.5-2.4-1.3-3.3l24.2-41.9c0.3,0.1,0.7,0.1,1,0.1
		c2.2,0,4-1.4,4.6-3.4H624c0.6,2,2.5,3.4,4.6,3.4c0.3,0,0.7,0,1-0.1l24.2,41.9c-0.8,0.9-1.3,2-1.3,3.3s0.5,2.4,1.3,3.3l-24.2,41.9
		C629.2,553.2,628.9,553.2,628.6,553.2z"/>
	<path class="st1" d="M559.5,558.1c-0.4,0-0.7,0-1,0.1l-24.2-41.9c0.8-0.9,1.3-2,1.3-3.3c0-2.7-2.2-4.9-4.9-4.9
		c-2.2,0-4,1.4-4.6,3.4h-48.6c-0.6-2-2.5-3.4-4.6-3.4c-2.7,0-4.9,2.2-4.9,4.9c0,1.3,0.5,2.4,1.3,3.3L445,558.2
		c-0.3-0.1-0.7-0.1-1-0.1c-2.7,0-4.9,2.2-4.9,4.9s2.2,4.9,4.9,4.9c0.4,0,0.7,0,1-0.1l24.2,41.9c-0.8,0.9-1.3,2-1.3,3.3
		c0,2.7,2.2,4.9,4.9,4.9c2.2,0,4-1.4,4.6-3.4H526c0.6,2,2.5,3.4,4.6,3.4c2.7,0,4.9-2.2,4.9-4.9c0-1.3-0.5-2.4-1.3-3.3l24.2-41.9
		c0.3,0.1,0.7,0.1,1,0.1c2.7,0,4.9-2.2,4.9-4.9C564.4,560.3,562.2,558.1,559.5,558.1z M530.7,608.1c-2.2,0-4,1.4-4.6,3.4h-48.6
		c-0.6-2-2.5-3.4-4.6-3.4c-0.4,0-0.7,0-1,0.1l-24.2-41.9c0.8-0.9,1.3-2,1.3-3.3s-0.5-2.4-1.3-3.3l24.2-41.9c0.3,0.1,0.7,0.1,1,0.1
		c2.2,0,4-1.4,4.6-3.4H526c0.6,2,2.5,3.4,4.6,3.4c0.3,0,0.7,0,1-0.1l24.2,41.9c-0.8,0.9-1.3,2-1.3,3.3s0.5,2.4,1.3,3.3l-24.2,41.9
		C531.4,608.1,531,608.1,530.7,608.1z"/>
	<path class="st1" d="M462.3,503.2c-0.4,0-0.7,0-1,0.1l-24.2-41.9c0.8-0.9,1.3-2,1.3-3.3c0-2.7-2.2-4.9-4.9-4.9
		c-2.2,0-4,1.4-4.6,3.4h-48.6c-0.6-2-2.5-3.4-4.6-3.4c-2.7,0-4.9,2.2-4.9,4.9c0,1.3,0.5,2.4,1.3,3.3l-24.2,41.9
		c-0.3-0.1-0.7-0.1-1-0.1c-2.7,0-4.9,2.2-4.9,4.9c0,2.7,2.2,4.9,4.9,4.9c0.4,0,0.7,0,1-0.1l24.2,41.9c-0.8,0.9-1.3,2-1.3,3.3
		c0,2.7,2.2,4.9,4.9,4.9c2.2,0,4-1.4,4.6-3.4h48.6c0.6,2,2.5,3.4,4.6,3.4c2.7,0,4.9-2.2,4.9-4.9c0-1.3-0.5-2.4-1.3-3.3l24.2-41.9
		c0.3,0.1,0.7,0.1,1,0.1c2.7,0,4.9-2.2,4.9-4.9C467.2,505.4,465,503.2,462.3,503.2z M433.5,553.2c-2.2,0-4,1.4-4.6,3.4h-48.6
		c-0.6-2-2.5-3.4-4.6-3.4c-0.4,0-0.7,0-1,0.1l-24.2-41.9c0.8-0.9,1.3-2,1.3-3.3s-0.5-2.4-1.3-3.3l24.2-41.9c0.3,0.1,0.7,0.1,1,0.1
		c2.2,0,4-1.4,4.6-3.4h48.6c0.6,2,2.5,3.4,4.6,3.4c0.3,0,0.7,0,1-0.1l24.2,41.9c-0.8,0.9-1.3,2-1.3,3.3s0.5,2.4,1.3,3.3l-24.2,41.9
		C434.1,553.2,433.8,553.2,433.5,553.2z"/>
	<path class="st1" d="M362.6,445.2c-0.4,0-0.7,0-1,0.1l-24.2-41.9c0.8-0.9,1.3-2,1.3-3.3c0-2.7-2.2-4.9-4.9-4.9
		c-2.2,0-4,1.4-4.6,3.4h-48.6c-0.6-2-2.5-3.4-4.6-3.4c-2.7,0-4.9,2.2-4.9,4.9c0,1.3,0.5,2.4,1.3,3.3L248,445.3
		c-0.3-0.1-0.7-0.1-1-0.1c-2.7,0-4.9,2.2-4.9,4.9c0,2.7,2.2,4.9,4.9,4.9c0.4,0,0.7,0,1-0.1l24.2,41.9c-0.8,0.9-1.3,2-1.3,3.3
		c0,2.7,2.2,4.9,4.9,4.9c2.2,0,4-1.4,4.6-3.4H329c0.6,2,2.5,3.4,4.6,3.4c2.7,0,4.9-2.2,4.9-4.9c0-1.3-0.5-2.4-1.3-3.3l24.2-41.9
		c0.3,0.1,0.7,0.1,1,0.1c2.7,0,4.9-2.2,4.9-4.9C367.5,447.4,365.3,445.2,362.6,445.2z M333.7,495.2c-2.2,0-4,1.4-4.6,3.4h-48.6
		c-0.6-2-2.5-3.4-4.6-3.4c-0.4,0-0.7,0-1,0.1l-24.2-41.9c0.8-0.9,1.3-2,1.3-3.3s-0.5-2.4-1.3-3.3l24.2-41.9c0.3,0.1,0.7,0.1,1,0.1
		c2.2,0,4-1.4,4.6-3.4h48.6c0.6,2,2.5,3.4,4.6,3.4c0.3,0,0.7,0,1-0.1l24.2,41.9c-0.8,0.9-1.3,2-1.3,3.3s0.5,2.4,1.3,3.3l-24.2,41.9
		C334.4,495.2,334.1,495.2,333.7,495.2z"/>
	<path class="st1" d="M1052.4,613c-0.4,0-0.7,0-1,0.1l-24.2-41.9c0.8-0.9,1.3-2,1.3-3.3c0-2.7-2.2-4.9-4.9-4.9c-2.2,0-4,1.4-4.6,3.4
		h-48.6c-0.6-2-2.5-3.4-4.6-3.4c-2.7,0-4.9,2.2-4.9,4.9c0,1.3,0.5,2.4,1.3,3.3L938,613.1c-0.3-0.1-0.7-0.1-1-0.1
		c-2.7,0-4.9,2.2-4.9,4.9s2.2,4.9,4.9,4.9c0.4,0,0.7,0,1-0.1l24.2,41.9c-0.8,0.9-1.3,2-1.3,3.3c0,2.7,2.2,4.9,4.9,4.9
		c2.2,0,4-1.4,4.6-3.4h48.6c0.6,2,2.5,3.4,4.6,3.4c2.7,0,4.9-2.2,4.9-4.9c0-1.3-0.5-2.4-1.3-3.3l24.2-41.9c0.3,0.1,0.7,0.1,1,0.1
		c2.7,0,4.9-2.2,4.9-4.9S1055.1,613,1052.4,613z M1023.6,663c-2.2,0-4,1.4-4.6,3.4h-48.6c-0.6-2-2.5-3.4-4.6-3.4c-0.4,0-0.7,0-1,0.1
		l-24.2-41.9c0.8-0.9,1.3-2,1.3-3.3s-0.5-2.4-1.3-3.3l24.2-41.9c0.3,0.1,0.7,0.1,1,0.1c2.2,0,4-1.4,4.6-3.4h48.6
		c0.6,2,2.5,3.4,4.6,3.4c0.3,0,0.7,0,1-0.1l24.2,41.9c-0.8,0.9-1.3,2-1.3,3.3s0.5,2.4,1.3,3.3l-24.2,41.9
		C1024.2,663,1023.9,663,1023.6,663z"/>
</g>
<g class="st2">
	<polygon class="st3" points="845.7,396.6 787.4,396.6 758.2,447.1 787.4,497.5 845.7,497.5 874.9,447.1 	"/>
	<polygon class="st3" points="276,613.6 217.7,613.6 188.5,664 217.7,714.5 276,714.5 305.2,664 	"/>
	<polygon class="st4" points="750.1,342.8 691.8,342.8 662.6,393.3 691.8,443.7 750.1,443.7 779.3,393.3 	"/>
	<polygon class="st4" points="845.7,507.1 787.4,507.1 758.2,557.5 787.4,608 845.7,608 874.9,557.5 	"/>
	<polygon class="st4" points="655,504.8 596.7,504.8 567.5,555.2 596.7,605.7 655,605.7 684.2,555.2 	"/>
	<polygon class="st5" points="653.5,178.3 595.1,178.3 566,228.7 595.1,279.2 653.5,279.2 682.6,228.7 	"/>
	<polygon class="st5" points="370.1,234.1 311.8,234.1 282.6,284.5 311.8,335 370.1,335 399.3,284.5 	"/>
	<polygon class="st5" points="942.3,451.5 884,451.5 854.8,502 884,552.4 942.3,552.4 971.5,502 	"/>
	<polygon class="st5" points="562.2,664 503.9,664 474.7,714.5 503.9,765 562.2,765 591.4,714.5 	"/>
	<polygon class="st5" points="370.6,560.2 312.3,560.2 283.1,610.7 312.3,661.1 370.6,661.1 399.8,610.7 	"/>
	<polygon class="st5" points="558.4,342.8 500,342.8 470.9,393.3 500,443.7 558.4,443.7 587.5,393.3 	"/>
	<polygon class="st5" points="654,287 595.7,287 566.5,337.4 595.7,387.9 654,387.9 683.2,337.4 	"/>
	<polygon class="st5" points="750.1,451.5 691.8,451.5 662.6,502 691.8,552.4 750.1,552.4 779.3,502 	"/>
	<polygon class="st5" points="276.5,395.6 218.2,395.6 189,446.1 218.2,496.5 276.5,496.5 305.7,446.1 	"/>
	<polygon class="st3" points="558.4,234.1 500,234.1 470.9,284.5 500,335 558.4,335 587.5,284.5 	"/>
	<polygon class="st3" points="653.5,395.6 595.1,395.6 566,446.1 595.1,496.5 653.5,496.5 682.6,446.1 	"/>
	<polygon class="st3" points="276,288 217.7,288 188.5,338.4 217.7,388.9 276,388.9 305.2,338.4 	"/>
	<polygon class="st3" points="464.8,615 406.4,615 377.3,665.5 406.4,716 464.8,716 493.9,665.5 	"/>
	<polygon class="st3" points="370.6,451.5 312.3,451.5 283.1,502 312.3,552.4 370.6,552.4 399.8,502 	"/>
	<polygon class="st4" points="464.3,288 405.9,288 376.8,338.4 405.9,388.9 464.3,388.9 493.4,338.4 	"/>
	<polygon class="st4" points="370.6,342.8 312.3,342.8 283.1,393.3 312.3,443.7 370.6,443.7 399.8,393.3 	"/>
	<polygon class="st4" points="276,503.3 217.7,503.3 188.5,553.7 217.7,604.2 276,604.2 305.2,553.7 	"/>
	<polygon class="st4" points="370.1,668.9 311.8,668.9 282.6,719.4 311.8,769.9 370.1,769.9 399.3,719.4 	"/>
	<polygon class="st4" points="558.4,451.5 500,451.5 470.9,502 500,552.4 558.4,552.4 587.5,502 	"/>
</g>
<g>
	<path class="st6" d="M363.8,671.9c-0.4,0-0.7,0-1,0.1l-24.2-41.9c0.8-0.9,1.3-2,1.3-3.3c0-2.7-2.2-4.9-4.9-4.9
		c-2.2,0-4,1.4-4.6,3.4h-48.6c-0.6-2-2.5-3.4-4.6-3.4c-2.7,0-4.9,2.2-4.9,4.9c0,1.3,0.5,2.4,1.3,3.3L249.2,672
		c-0.3-0.1-0.7-0.1-1-0.1c-2.7,0-4.9,2.2-4.9,4.9s2.2,4.9,4.9,4.9c0.4,0,0.7,0,1-0.1l24.2,41.9c-0.8,0.9-1.3,2-1.3,3.3
		c0,2.7,2.2,4.9,4.9,4.9c2.2,0,4-1.4,4.6-3.4h48.6c0.6,2,2.5,3.4,4.6,3.4c2.7,0,4.9-2.2,4.9-4.9c0-1.3-0.5-2.4-1.3-3.3l24.2-41.9
		c0.3,0.1,0.7,0.1,1,0.1c2.7,0,4.9-2.2,4.9-4.9C368.7,674.1,366.5,671.9,363.8,671.9z M334.9,721.9c-2.2,0-4,1.4-4.6,3.4h-48.6
		c-0.6-2-2.5-3.4-4.6-3.4c-0.4,0-0.7,0-1,0.1l-24.3-42c0.8-0.9,1.3-2,1.3-3.3s-0.5-2.4-1.3-3.3l24.2-41.9c0.3,0.1,0.7,0.1,1,0.1
		c2.2,0,4-1.4,4.6-3.4h48.6c0.6,2,2.5,3.4,4.6,3.4c0.3,0,0.7,0,1-0.1l24.2,41.9c-0.8,0.9-1.3,2-1.3,3.3s0.5,2.4,1.3,3.3l-24.1,42
		C335.6,721.9,335.3,721.9,334.9,721.9z"/>
	<path class="st6" d="M461,726.8c-0.4,0-0.7,0-1,0.1L435.7,685c0.8-0.9,1.3-2,1.3-3.3c0-2.7-2.2-4.9-4.9-4.9c-2.2,0-4,1.4-4.6,3.4
		h-48.6c-0.6-2-2.5-3.4-4.6-3.4c-2.7,0-4.9,2.2-4.9,4.9c0,1.3,0.5,2.4,1.3,3.3l-24.2,41.9c-0.3-0.1-0.7-0.1-1-0.1
		c-2.7,0-4.9,2.2-4.9,4.9s2.2,4.9,4.9,4.9c0.4,0,0.7,0,1-0.1l24.2,41.9c-0.8,0.9-1.3,2-1.3,3.3c0,2.7,2.2,4.9,4.9,4.9
		c2.2,0,4-1.4,4.6-3.4h48.6c0.6,2,2.5,3.4,4.6,3.4c2.7,0,4.9-2.2,4.9-4.9c0-1.3-0.5-2.4-1.3-3.3l24.2-41.9c0.3,0.1,0.7,0.1,1,0.1
		c2.7,0,4.9-2.2,4.9-4.9C465.9,728.9,463.7,726.8,461,726.8z M432.1,776.7c-2.2,0-4,1.4-4.6,3.4h-48.6c-0.6-2-2.5-3.4-4.6-3.4
		c-0.4,0-0.7,0-1,0.1L349,734.9c0.8-0.9,1.3-2,1.3-3.3s-0.5-2.4-1.3-3.3l24.2-41.9c0.3,0.1,0.7,0.1,1,0.1c2.2,0,4-1.4,4.6-3.4h48.6
		c0.6,2,2.5,3.4,4.6,3.4c0.3,0,0.7,0,1-0.1l24.2,41.9c-0.8,0.9-1.3,2-1.3,3.3s0.5,2.4,1.3,3.3L433,776.8
		C432.8,776.8,432.5,776.7,432.1,776.7z"/>
	<path class="st6" d="M363.8,559.2c-0.4,0-0.7,0-1,0.1l-24.2-41.9c0.8-0.9,1.3-2,1.3-3.3c0-2.7-2.2-4.9-4.9-4.9
		c-2.2,0-4,1.4-4.6,3.4h-48.6c-0.6-2-2.5-3.4-4.6-3.4c-2.7,0-4.9,2.2-4.9,4.9c0,1.3,0.5,2.4,1.3,3.3l-24.2,41.9
		c-0.3-0.1-0.7-0.1-1-0.1c-2.7,0-4.9,2.2-4.9,4.9s2.2,4.9,4.9,4.9c0.4,0,0.7,0,1-0.1l24.2,41.9c-0.8,0.9-1.3,2-1.3,3.3
		c0,2.7,2.2,4.9,4.9,4.9c2.2,0,4-1.4,4.6-3.4h48.6c0.6,2,2.5,3.4,4.6,3.4c2.7,0,4.9-2.2,4.9-4.9c0-1.3-0.5-2.4-1.3-3.3l24.2-41.9
		c0.3,0.1,0.7,0.1,1,0.1c2.7,0,4.9-2.2,4.9-4.9C368.7,561.3,366.5,559.2,363.8,559.2z M334.9,609.1c-2.2,0-4,1.4-4.6,3.4h-48.6
		c-0.6-2-2.5-3.4-4.6-3.4c-0.4,0-0.7,0-1,0.1l-24.2-41.9c0.8-0.9,1.3-2,1.3-3.3s-0.5-2.4-1.3-3.3l24.2-41.9c0.3,0.1,0.7,0.1,1,0.1
		c2.2,0,4-1.4,4.6-3.4h48.6c0.6,2,2.5,3.4,4.6,3.4c0.3,0,0.7,0,1-0.1l24.2,41.9c-0.8,0.9-1.3,2-1.3,3.3s0.5,2.4,1.3,3.3l-24.2,41.9
		C335.6,609.2,335.3,609.1,334.9,609.1z"/>
	<path class="st6" d="M558.9,671.9c-0.4,0-0.7,0-1,0.1l-24.2-41.9c0.8-0.9,1.3-2,1.3-3.3c0-2.7-2.2-4.9-4.9-4.9
		c-2.2,0-4,1.4-4.6,3.4h-48.6c-0.6-2-2.5-3.4-4.6-3.4c-2.7,0-4.9,2.2-4.9,4.9c0,1.3,0.5,2.4,1.3,3.3L444.3,672
		c-0.3-0.1-0.7-0.1-1-0.1c-2.7,0-4.9,2.2-4.9,4.9s2.2,4.9,4.9,4.9c0.4,0,0.7,0,1-0.1l24.2,41.9c-0.8,0.9-1.3,2-1.3,3.3
		c0,2.7,2.2,4.9,4.9,4.9c2.2,0,4-1.4,4.6-3.4h48.6c0.6,2,2.5,3.4,4.6,3.4c2.7,0,4.9-2.2,4.9-4.9c0-1.3-0.5-2.4-1.3-3.3l24.2-41.9
		c0.3,0.1,0.7,0.1,1,0.1c2.7,0,4.9-2.2,4.9-4.9C563.8,674.1,561.6,671.9,558.9,671.9z M530,721.9c-2.2,0-4,1.4-4.6,3.4h-48.6
		c-0.6-2-2.5-3.4-4.6-3.4c-0.4,0-0.7,0-1,0.1l-24.3-42c0.8-0.9,1.3-2,1.3-3.3s-0.5-2.4-1.3-3.3l24.2-41.9c0.3,0.1,0.7,0.1,1,0.1
		c2.2,0,4-1.4,4.6-3.4h48.6c0.6,2,2.5,3.4,4.6,3.4c0.3,0,0.7,0,1-0.1l24.2,41.9c-0.8,0.9-1.3,2-1.3,3.3s0.5,2.4,1.3,3.3L531,722
		C530.7,721.9,530.4,721.9,530,721.9z"/>
</g>
<g>
	<path class="st6" d="M922.2,391.2c-0.4,0-0.7,0-1,0.1L897,349.4c0.8-0.9,1.3-2,1.3-3.3c0-2.7-2.2-4.9-4.9-4.9c-2.2,0-4,1.4-4.6,3.4
		h-48.6c-0.6-2-2.5-3.4-4.6-3.4c-2.7,0-4.9,2.2-4.9,4.9c0,1.3,0.5,2.4,1.3,3.3l-24.2,41.9c-0.3-0.1-0.7-0.1-1-0.1
		c-2.7,0-4.9,2.2-4.9,4.9c0,2.7,2.2,4.9,4.9,4.9c0.4,0,0.7,0,1-0.1l24.2,41.9c-0.8,0.9-1.3,2-1.3,3.3c0,2.7,2.2,4.9,4.9,4.9
		c2.2,0,4-1.4,4.6-3.4h48.6c0.6,2,2.5,3.4,4.6,3.4c2.7,0,4.9-2.2,4.9-4.9c0-1.3-0.5-2.4-1.3-3.3l24.2-41.9c0.3,0.1,0.7,0.1,1,0.1
		c2.7,0,4.9-2.2,4.9-4.9C927,393.4,925,391.2,922.2,391.2z M893.4,441.2c-2.2,0-4,1.4-4.6,3.4h-48.6c-0.6-2-2.5-3.4-4.6-3.4
		c-0.4,0-0.7,0-1,0.1l-24.2-41.9c0.8-0.9,1.3-2,1.3-3.3s-0.5-2.4-1.3-3.3l24.2-41.9c0.3,0.1,0.7,0.1,1,0.1c2.2,0,4-1.4,4.6-3.4h48.6
		c0.6,2,2.5,3.4,4.6,3.4c0.3,0,0.7,0,1-0.1l24.2,41.9c-0.8,0.9-1.3,2-1.3,3.3s0.5,2.4,1.3,3.3l-24.2,41.9
		C894,441.2,893.7,441.2,893.4,441.2z"/>
	<path class="st6" d="M1019.5,333.2c-0.4,0-0.7,0-1,0.1l-24.2-41.9c0.8-0.9,1.3-2,1.3-3.3c0-2.7-2.2-4.9-4.9-4.9
		c-2.2,0-4,1.4-4.6,3.4h-48.6c-0.6-2-2.5-3.4-4.6-3.4c-2.7,0-4.9,2.2-4.9,4.9c0,1.3,0.5,2.4,1.3,3.3L905,333.3
		c-0.3-0.1-0.7-0.1-1-0.1c-2.7,0-4.9,2.2-4.9,4.9c0,2.7,2.2,4.9,4.9,4.9c0.4,0,0.7,0,1-0.1l24.2,41.9c-0.8,0.9-1.3,2-1.3,3.3
		c0,2.7,2.2,4.9,4.9,4.9c2.2,0,4-1.4,4.6-3.4H986c0.6,2,2.5,3.4,4.6,3.4c2.7,0,4.9-2.2,4.9-4.9c0-1.3-0.5-2.4-1.3-3.3l24.2-41.9
		c0.3,0.1,0.7,0.1,1,0.1c2.7,0,4.9-2.2,4.9-4.9C1024.4,335.4,1022.1,333.2,1019.5,333.2z M990.7,383.2c-2.2,0-4,1.4-4.6,3.4h-48.6
		c-0.6-2-2.5-3.4-4.6-3.4c-0.4,0-0.7,0-1,0.1l-24.4-42c0.8-0.9,1.3-2,1.3-3.3s-0.5-2.4-1.3-3.3l24.2-41.9c0.3,0.1,0.7,0.1,1,0.1
		c2.2,0,4-1.4,4.6-3.4h48.6c0.6,2,2.5,3.4,4.6,3.4c0.3,0,0.7,0,1-0.1l24.2,41.9c-0.8,0.9-1.3,2-1.3,3.3s0.5,2.4,1.3,3.3l-24.2,41.9
		C991.2,383.2,991,383.2,990.7,383.2z"/>
</g>
<g>
	<path class="st6" d="M854.6,726.8c-0.4,0-0.7,0-1,0.1L829.4,685c0.8-0.9,1.3-2,1.3-3.3c0-2.7-2.2-4.9-4.9-4.9c-2.2,0-4,1.4-4.6,3.4
		h-48.6c-0.6-2-2.5-3.4-4.6-3.4c-2.7,0-4.9,2.2-4.9,4.9c0,1.3,0.5,2.4,1.3,3.3l-24.2,41.9c-0.3-0.1-0.7-0.1-1-0.1
		c-2.7,0-4.9,2.2-4.9,4.9s2.2,4.9,4.9,4.9c0.4,0,0.7,0,1-0.1l24.2,41.9c-0.8,0.9-1.3,2-1.3,3.3c0,2.7,2.2,4.9,4.9,4.9
		c2.2,0,4-1.4,4.6-3.4h48.6c0.6,2,2.5,3.4,4.6,3.4c2.7,0,4.9-2.2,4.9-4.9c0-1.3-0.5-2.4-1.3-3.3l24.2-41.9c0.3,0.1,0.7,0.1,1,0.1
		c2.7,0,4.9-2.2,4.9-4.9C859.5,728.9,857.3,726.8,854.6,726.8z M825.8,776.7c-2.2,0-4,1.4-4.6,3.4h-48.6c-0.6-2-2.5-3.4-4.6-3.4
		c-0.4,0-0.7,0-1,0.1l-24.2-41.9c0.8-0.9,1.3-2,1.3-3.3s-0.5-2.4-1.3-3.3l24.2-41.9c0.3,0.1,0.7,0.1,1,0.1c2.2,0,4-1.4,4.6-3.4h48.6
		c0.6,2,2.5,3.4,4.6,3.4c0.3,0,0.7,0,1-0.1l24.2,41.9c-0.8,0.9-1.3,2-1.3,3.3s0.5,2.4,1.3,3.3l-24.2,41.9
		C826.4,776.8,826.1,776.7,825.8,776.7z"/>
</g>
<g>
	<path class="st6" d="M263.2,163.5c-0.4,0-0.7,0-1,0.1L238,121.7c0.8-0.9,1.3-2,1.3-3.3c0-2.7-2.2-4.9-4.9-4.9c-2.2,0-4,1.4-4.6,3.4
		h-48.6c-0.6-2-2.5-3.4-4.6-3.4c-2.7,0-4.9,2.2-4.9,4.9c0,1.3,0.5,2.4,1.3,3.3l-24.2,41.9c-0.3-0.1-0.7-0.1-1-0.1
		c-2.7,0-4.9,2.2-4.9,4.9s2.2,4.9,4.9,4.9c0.4,0,0.7,0,1-0.1l24.2,41.9c-0.8,0.9-1.3,2-1.3,3.3c0,2.7,2.2,4.9,4.9,4.9
		c2.2,0,4-1.4,4.6-3.4h48.6c0.6,2,2.5,3.4,4.6,3.4c2.7,0,4.9-2.2,4.9-4.9c0-1.3-0.5-2.4-1.3-3.3l24.2-41.9c0.3,0.1,0.7,0.1,1,0.1
		c2.7,0,4.9-2.2,4.9-4.9S265.9,163.5,263.2,163.5z M234.3,213.5c-2.2,0-4,1.4-4.6,3.4h-48.6c-0.6-2-2.5-3.4-4.6-3.4
		c-0.4,0-0.7,0-1,0.1l-24.2-41.9c0.8-0.9,1.3-2,1.3-3.3s-0.5-2.4-1.3-3.3l24.2-41.9c0.3,0.1,0.7,0.1,1,0.1c2.2,0,4-1.4,4.6-3.4h48.6
		c0.6,2,2.5,3.4,4.6,3.4c0.3,0,0.7,0,1-0.1l24.2,41.9c-0.8,0.9-1.3,2-1.3,3.3s0.5,2.4,1.3,3.3l-24.2,41.9
		C235,213.5,234.7,213.5,234.3,213.5z"/>
	<path class="st6" d="M361.8,221.1c-0.4,0-0.7,0-1,0.1l-24.2-41.9c0.8-0.9,1.3-2,1.3-3.3c0-2.7-2.2-4.9-4.9-4.9
		c-2.2,0-4,1.4-4.6,3.4h-48.6c-0.6-2-2.5-3.4-4.6-3.4c-2.7,0-4.9,2.2-4.9,4.9c0,1.3,0.5,2.4,1.3,3.3l-24.2,41.9
		c-0.3-0.1-0.7-0.1-1-0.1c-2.7,0-4.9,2.2-4.9,4.9s2.2,4.9,4.9,4.9c0.4,0,0.7,0,1-0.1l24.2,41.9c-0.8,0.9-1.3,2-1.3,3.3
		c0,2.7,2.2,4.9,4.9,4.9c2.2,0,4-1.4,4.6-3.4h48.6c0.6,2,2.5,3.4,4.6,3.4c2.7,0,4.9-2.2,4.9-4.9c0-1.3-0.5-2.4-1.3-3.3l24.2-41.9
		c0.3,0.1,0.7,0.1,1,0.1c2.7,0,4.9-2.2,4.9-4.9S364.5,221.1,361.8,221.1z M333,271.1c-2.2,0-4,1.4-4.6,3.4h-48.6
		c-0.6-2-2.5-3.4-4.6-3.4c-0.4,0-0.7,0-1,0.1L250,229.3c0.8-0.9,1.3-2,1.3-3.3s-0.5-2.4-1.3-3.3l24.2-41.9c0.3,0.1,0.7,0.1,1,0.1
		c2.2,0,4-1.4,4.6-3.4h48.6c0.6,2,2.5,3.4,4.6,3.4c0.3,0,0.7,0,1-0.1l24.2,41.9c-0.8,0.9-1.3,2-1.3,3.3s0.5,2.4,1.3,3.3L334,271.2
		C333.6,271.2,333.3,271.1,333,271.1z"/>
	<path class="st6" d="M460,163.5c-0.4,0-0.7,0-1,0.1l-24.2-41.9c0.8-0.9,1.3-2,1.3-3.3c0-2.7-2.2-4.9-4.9-4.9c-2.2,0-4,1.4-4.6,3.4
		H378c-0.6-2-2.5-3.4-4.6-3.4c-2.7,0-4.9,2.2-4.9,4.9c0,1.3,0.5,2.4,1.3,3.3l-24.2,41.9c-0.3-0.1-0.7-0.1-1-0.1
		c-2.7,0-4.9,2.2-4.9,4.9s2.2,4.9,4.9,4.9c0.4,0,0.7,0,1-0.1l24.2,41.9c-0.8,0.9-1.3,2-1.3,3.3c0,2.7,2.2,4.9,4.9,4.9
		c2.2,0,4-1.4,4.6-3.4h48.6c0.6,2,2.5,3.4,4.6,3.4c2.7,0,4.9-2.2,4.9-4.9c0-1.3-0.5-2.4-1.3-3.3l24.2-41.9c0.3,0.1,0.7,0.1,1,0.1
		c2.7,0,4.9-2.2,4.9-4.9S462.7,163.5,460,163.5z M431.1,213.5c-2.2,0-4,1.4-4.6,3.4h-48.6c-0.6-2-2.5-3.4-4.6-3.4
		c-0.4,0-0.7,0-1,0.1l-24.3-42c0.8-0.9,1.3-2,1.3-3.3s-0.5-2.4-1.3-3.3l24.2-41.9c0.3,0.1,0.7,0.1,1,0.1c2.2,0,4-1.4,4.6-3.4h48.6
		c0.6,2,2.5,3.4,4.6,3.4c0.3,0,0.7,0,1-0.1l24.2,41.9c-0.8,0.9-1.3,2-1.3,3.3s0.5,2.4,1.3,3.3L432,213.5
		C431.8,213.5,431.5,213.5,431.1,213.5z"/>
</g>
</svg>
