<svg id="svg" version="1.1" xmlns="http://www.w3.org/2000/svg" xmlns:xlink="http://www.w3.org/1999/xlink" width="400" height="351.219512195122" viewBox="0, 0, 400,351.219512195122"><g id="svgg"><path id="path0" d="M275.220 78.663 C 274.930 78.761,274.576 79.014,274.434 79.227 C 274.256 79.494,274.174 79.478,274.171 79.174 C 274.167 78.869,273.477 78.735,271.910 78.735 C 270.434 78.735,269.593 78.887,269.477 79.174 C 269.335 79.525,269.294 79.525,269.272 79.174 C 269.239 78.656,268.190 78.571,268.190 79.086 C 268.190 79.279,267.953 79.438,267.663 79.438 C 267.373 79.438,267.135 79.279,267.135 79.086 C 267.135 78.893,266.740 78.735,266.257 78.735 C 265.773 78.735,265.378 78.893,265.378 79.086 C 265.378 79.292,264.165 79.438,262.443 79.438 C 259.304 79.438,257.293 79.920,257.293 80.673 C 257.293 80.928,257.125 81.193,256.919 81.261 C 256.714 81.330,256.455 82.055,256.346 82.872 C 256.236 83.690,256.009 84.359,255.841 84.359 C 255.673 84.359,255.536 84.596,255.536 84.886 C 255.536 85.176,255.378 85.413,255.185 85.413 C 254.991 85.413,254.833 85.653,254.833 85.946 C 254.833 86.612,252.489 88.928,251.815 88.928 C 251.542 88.928,251.318 89.086,251.318 89.279 C 251.318 89.473,251.002 89.631,250.615 89.631 C 250.228 89.631,249.912 89.789,249.912 89.983 C 249.912 90.198,248.472 90.324,246.221 90.306 C 244.192 90.289,242.531 90.131,242.531 89.953 C 242.531 89.471,241.566 89.565,241.330 90.070 C 241.166 90.422,241.084 90.422,240.920 90.070 C 240.206 88.540,237.258 91.218,237.258 93.396 C 237.258 93.668,237.100 93.793,236.907 93.673 C 236.708 93.550,236.555 93.845,236.555 94.355 C 236.555 94.850,236.397 95.255,236.204 95.255 C 236.011 95.255,235.852 95.405,235.852 95.588 C 235.852 96.086,234.254 97.715,233.766 97.715 C 233.533 97.715,233.104 97.953,232.814 98.243 C 232.524 98.533,231.903 98.770,231.434 98.770 C 230.964 98.770,230.580 98.928,230.580 99.121 C 230.580 99.315,229.710 99.473,228.647 99.473 C 227.337 99.473,226.712 99.615,226.708 99.912 C 226.704 100.235,226.623 100.226,226.401 99.875 C 226.190 99.542,226.026 99.516,225.858 99.787 C 225.550 100.286,224.253 100.296,224.253 99.799 C 224.253 99.592,224.005 99.671,223.701 99.975 C 223.080 100.596,222.692 100.710,223.023 100.176 C 223.142 99.982,223.073 99.824,222.868 99.824 C 222.663 99.824,222.496 100.040,222.496 100.303 C 222.496 100.632,222.194 100.728,221.529 100.610 C 220.737 100.470,220.642 100.523,221.002 100.905 C 221.635 101.576,221.544 101.933,220.738 101.933 C 220.351 101.933,220.035 102.165,220.035 102.449 C 220.035 103.034,217.742 105.448,217.186 105.448 C 216.986 105.448,216.591 105.679,216.309 105.960 C 216.027 106.242,215.538 106.374,215.222 106.252 C 214.904 106.130,214.738 106.178,214.851 106.361 C 214.963 106.542,214.672 106.870,214.206 107.090 C 213.642 107.356,213.283 107.371,213.137 107.135 C 212.997 106.908,212.819 106.938,212.647 107.216 C 212.499 107.456,211.564 107.731,210.570 107.827 C 209.348 107.944,208.614 108.212,208.304 108.655 C 208.052 109.015,207.741 109.206,207.613 109.078 C 207.486 108.950,207.381 109.005,207.381 109.200 C 207.381 109.394,207.000 109.727,206.533 109.940 C 206.061 110.155,205.484 110.881,205.232 111.578 C 204.983 112.266,204.653 112.830,204.499 112.830 C 204.344 112.830,204.215 113.027,204.212 113.269 C 204.191 114.961,200.823 117.114,198.792 116.735 C 197.910 116.570,197.188 116.494,197.188 116.566 C 197.188 116.637,196.872 116.380,196.485 115.993 C 196.098 115.606,195.534 115.290,195.230 115.290 C 194.926 115.290,194.440 115.053,194.150 114.763 C 193.860 114.473,193.327 114.236,192.965 114.236 C 192.603 114.236,192.100 113.949,191.848 113.599 C 190.944 112.346,190.579 112.414,190.761 113.800 C 190.856 114.523,191.115 115.342,191.337 115.621 C 191.661 116.028,191.636 116.068,191.213 115.824 C 190.837 115.608,190.862 115.723,191.301 116.224 C 191.639 116.611,191.916 117.045,191.916 117.188 C 191.916 117.581,192.868 118.453,193.297 118.453 C 193.504 118.453,193.673 118.593,193.673 118.764 C 193.673 119.090,196.766 120.211,197.664 120.211 C 197.950 120.211,198.276 120.409,198.389 120.650 C 198.552 120.999,198.636 121.000,198.798 120.653 C 198.957 120.314,199.109 120.325,199.485 120.700 C 200.008 121.223,203.239 121.070,203.456 120.512 C 203.521 120.346,203.949 120.211,204.409 120.211 C 206.149 120.211,208.083 117.693,208.324 115.115 C 208.441 113.858,208.680 112.830,208.854 112.830 C 209.027 112.830,209.123 112.589,209.066 112.294 C 209.009 111.996,209.501 111.415,210.175 110.986 C 210.841 110.560,211.254 110.426,211.093 110.686 C 210.858 111.066,211.071 111.113,212.166 110.923 C 212.918 110.793,215.345 110.555,217.560 110.395 C 219.982 110.220,221.641 109.946,221.720 109.709 C 221.792 109.492,222.119 109.315,222.447 109.315 C 222.775 109.315,223.271 108.998,223.550 108.612 C 223.829 108.225,224.259 107.909,224.506 107.909 C 224.754 107.909,224.956 107.729,224.956 107.510 C 224.956 107.291,225.286 106.826,225.690 106.476 C 226.116 106.106,226.505 105.234,226.617 104.395 C 226.784 103.150,226.950 102.923,227.817 102.749 C 228.370 102.639,228.822 102.410,228.822 102.241 C 228.822 102.072,229.205 101.933,229.672 101.933 C 230.139 101.933,230.601 101.736,230.699 101.494 C 230.841 101.142,230.882 101.142,230.904 101.494 C 230.937 102.014,233.040 102.100,233.040 101.582 C 233.040 101.388,233.423 101.230,233.890 101.230 C 234.357 101.230,234.832 101.033,234.944 100.791 C 235.107 100.442,235.191 100.441,235.353 100.788 C 235.509 101.121,235.681 101.100,236.081 100.700 C 236.370 100.412,236.900 100.176,237.260 100.176 C 237.620 100.176,238.014 99.859,238.137 99.473 C 238.260 99.086,238.508 98.770,238.688 98.770 C 238.868 98.770,239.016 98.374,239.016 97.891 C 239.016 97.408,239.181 97.012,239.382 97.012 C 240.155 97.012,243.234 93.934,243.234 93.161 C 243.234 92.941,244.222 92.794,245.694 92.794 C 247.100 92.794,248.155 92.644,248.155 92.443 C 248.155 92.242,249.209 92.091,250.615 92.091 C 251.968 92.091,253.076 91.951,253.076 91.780 C 253.076 91.608,253.793 91.361,254.671 91.229 C 256.078 91.018,256.290 90.868,256.472 89.959 C 256.586 89.392,256.817 88.928,256.986 88.928 C 257.155 88.928,257.293 88.533,257.293 88.049 C 257.293 87.566,257.452 87.170,257.645 87.170 C 257.840 87.170,257.996 86.233,257.996 85.062 C 257.996 83.890,258.153 82.953,258.348 82.953 C 258.541 82.953,258.699 82.736,258.699 82.471 C 258.699 82.076,260.149 82.000,266.798 82.047 C 277.544 82.124,277.194 82.178,277.477 80.411 C 277.722 78.875,277.486 78.270,276.963 79.096 C 276.783 79.381,276.634 79.433,276.631 79.212 C 276.624 78.708,275.913 78.431,275.220 78.663 M193.214 103.212 C 192.840 103.587,193.309 104.025,193.858 103.814 C 194.141 103.706,194.285 103.475,194.178 103.302 C 193.950 102.934,193.532 102.895,193.214 103.212 M191.649 104.737 C 191.269 105.504,190.858 106.031,190.734 105.907 C 190.611 105.784,190.510 105.867,190.510 106.093 C 190.510 106.465,190.636 106.518,191.476 106.496 C 191.621 106.492,191.756 106.215,191.776 105.881 C 191.853 104.574,191.934 104.394,192.443 104.394 C 193.021 104.394,193.156 103.847,192.655 103.537 C 192.481 103.430,192.029 103.970,191.649 104.737 M187.522 113.181 C 187.402 113.374,187.017 113.533,186.666 113.533 C 186.086 113.533,186.021 113.944,185.955 118.014 C 185.864 123.594,185.882 123.380,185.526 123.160 C 185.363 123.059,185.129 123.474,185.008 124.082 C 184.852 124.863,184.699 125.051,184.490 124.721 C 184.199 124.261,184.005 124.761,184.150 125.597 C 184.178 125.757,184.057 125.798,183.881 125.690 C 183.706 125.582,183.163 125.807,182.675 126.191 C 182.187 126.575,181.575 126.892,181.315 126.895 C 180.958 126.899,180.971 126.982,181.371 127.241 C 181.783 127.507,181.692 127.583,180.952 127.587 C 180.432 127.590,179.909 127.434,179.789 127.241 C 179.670 127.047,179.414 126.889,179.220 126.889 C 179.027 126.889,178.967 127.047,179.086 127.241 C 179.206 127.434,179.149 127.592,178.960 127.592 C 178.772 127.592,178.565 127.446,178.500 127.268 C 178.436 127.089,177.909 126.873,177.329 126.789 C 175.330 126.496,173.462 125.428,172.236 123.876 C 171.214 122.584,170.969 122.427,170.767 122.938 C 170.633 123.274,170.513 123.367,170.499 123.144 C 170.485 122.903,170.165 122.818,169.717 122.935 C 169.241 123.060,169.043 122.998,169.185 122.768 C 169.326 122.540,169.013 122.434,168.354 122.485 C 167.313 122.567,166.414 123.023,167.293 123.023 C 167.568 123.023,167.674 123.292,167.565 123.709 C 167.466 124.087,167.592 124.678,167.844 125.023 C 168.171 125.470,168.200 125.839,167.946 126.314 C 167.685 126.801,167.717 127.061,168.066 127.285 C 168.459 127.539,168.450 127.652,168.014 127.938 C 167.724 128.129,167.655 128.287,167.861 128.290 C 168.752 128.303,168.334 132.437,167.316 133.665 C 165.675 135.646,164.593 136.717,164.148 136.804 C 163.858 136.861,163.538 137.016,163.437 137.149 C 162.344 138.594,151.946 137.910,151.792 136.383 C 151.762 136.091,151.721 135.666,151.699 135.438 C 151.630 134.696,151.142 134.485,151.142 135.196 C 151.142 135.576,150.945 136.101,150.703 136.361 C 150.347 136.745,150.367 136.799,150.810 136.645 C 151.279 136.481,151.339 136.833,151.238 139.141 C 151.124 141.745,150.288 144.277,149.668 143.894 C 149.512 143.798,149.385 143.887,149.385 144.092 C 149.385 144.296,149.266 144.445,149.121 144.422 C 148.505 144.325,147.879 144.481,148.079 144.682 C 148.439 145.041,147.339 145.912,146.669 145.799 C 146.326 145.741,146.079 145.872,146.119 146.090 C 146.161 146.316,145.456 146.584,144.476 146.714 C 143.532 146.839,142.708 147.088,142.645 147.266 C 142.582 147.445,141.780 147.639,140.861 147.697 C 139.943 147.755,139.192 147.895,139.192 148.007 C 139.192 148.120,138.761 148.436,138.236 148.710 C 136.965 149.373,136.028 150.322,136.028 150.946 C 136.028 151.224,135.870 151.550,135.677 151.670 C 135.483 151.789,135.325 152.431,135.325 153.096 C 135.325 153.762,135.193 154.306,135.032 154.306 C 134.871 154.306,134.739 154.751,134.739 155.294 C 134.739 155.838,134.476 156.812,134.153 157.457 C 133.831 158.103,133.568 159.087,133.568 159.644 C 133.568 160.363,133.339 160.748,132.777 160.978 L 131.986 161.300 132.777 161.534 C 133.659 161.796,133.853 163.017,133.128 163.747 C 132.776 164.101,132.804 164.146,133.268 163.969 C 133.587 163.847,133.948 163.910,134.071 164.108 C 134.193 164.306,134.551 164.369,134.867 164.248 C 135.277 164.091,135.360 164.158,135.157 164.487 C 134.940 164.837,135.134 164.907,135.978 164.783 C 136.586 164.694,137.084 164.712,137.085 164.824 C 137.086 164.935,138.528 165.076,140.288 165.138 C 142.865 165.227,143.632 165.382,144.219 165.929 C 144.620 166.302,145.139 166.608,145.371 166.608 C 145.604 166.608,145.886 166.845,145.997 167.135 C 146.108 167.425,146.453 167.663,146.763 167.663 C 147.073 167.663,147.563 167.900,147.853 168.190 C 148.213 168.550,148.245 168.717,147.953 168.717 C 147.717 168.717,147.936 169.098,148.439 169.564 C 149.107 170.183,149.358 170.774,149.371 171.761 C 149.447 177.229,149.400 177.981,148.966 178.262 C 148.595 178.501,148.609 178.626,149.033 178.905 C 149.485 179.201,149.472 179.252,148.946 179.256 C 148.607 179.259,148.330 179.437,148.330 179.651 C 148.330 179.865,148.576 179.946,148.876 179.831 C 149.200 179.706,149.331 179.768,149.198 179.983 C 149.075 180.182,148.671 180.249,148.301 180.131 C 147.930 180.014,147.627 180.070,147.627 180.258 C 147.627 180.445,148.550 180.598,149.678 180.598 C 151.025 180.598,151.728 180.455,151.728 180.181 C 151.728 178.162,153.827 175.958,155.908 175.791 C 156.210 175.767,156.358 175.589,156.239 175.395 C 156.018 175.038,157.227 174.917,161.060 174.912 C 162.693 174.910,163.195 175.054,163.738 175.680 C 164.105 176.103,164.588 176.450,164.812 176.450 C 165.035 176.450,165.397 176.845,165.618 177.329 C 165.838 177.812,166.135 178.207,166.279 178.207 C 167.107 178.207,167.977 183.204,167.293 184.029 C 166.986 184.399,166.981 184.534,167.277 184.534 C 167.528 184.534,167.643 185.061,167.583 185.940 C 167.530 186.713,167.368 187.345,167.223 187.346 C 166.778 187.347,166.932 188.682,167.399 188.871 C 167.654 188.974,167.571 189.060,167.202 189.076 C 166.853 189.091,166.658 189.252,166.770 189.433 C 166.882 189.614,166.298 189.914,165.473 190.098 C 164.202 190.383,164.133 190.438,165.026 190.457 C 166.410 190.486,169.509 189.662,169.196 189.348 C 169.061 189.214,169.120 189.104,169.325 189.104 C 169.531 189.104,169.673 188.537,169.640 187.845 C 169.608 187.152,169.673 186.528,169.786 186.459 C 170.130 186.246,170.169 179.965,169.827 179.965 C 169.651 179.965,169.432 179.063,169.341 177.961 C 169.250 176.860,168.993 175.897,168.770 175.823 C 168.548 175.749,168.366 175.532,168.366 175.341 C 168.366 174.878,167.458 173.989,166.985 173.989 C 166.778 173.989,166.608 173.831,166.608 173.638 C 166.608 173.445,166.292 173.286,165.905 173.286 C 165.518 173.286,165.202 173.147,165.202 172.977 C 165.202 172.806,163.858 172.555,162.214 172.418 C 160.571 172.281,159.227 172.025,159.227 171.849 C 159.227 171.673,158.673 171.529,157.996 171.529 C 157.001 171.529,156.766 171.395,156.766 170.826 C 156.766 170.439,156.608 170.123,156.415 170.123 C 156.221 170.123,156.063 169.954,156.063 169.746 C 156.063 169.396,155.854 169.106,154.762 167.938 C 153.994 167.118,153.286 166.608,152.915 166.608 C 152.713 166.608,152.548 166.450,152.548 166.257 C 152.548 166.063,152.232 165.905,151.845 165.905 C 151.459 165.905,151.142 165.736,151.142 165.528 C 151.142 164.866,150.166 164.148,149.264 164.148 C 148.783 164.148,148.336 164.002,148.272 163.824 C 148.207 163.647,146.968 163.403,145.518 163.282 C 142.786 163.056,138.215 161.722,138.841 161.335 C 139.165 161.135,139.401 158.293,139.504 153.339 C 139.539 151.673,139.620 151.493,140.334 151.488 C 140.973 151.484,141.024 151.418,140.598 151.142 C 140.147 150.851,140.160 150.801,140.685 150.796 C 141.024 150.793,141.301 150.633,141.301 150.439 C 141.301 150.246,141.923 150.088,142.684 150.088 C 143.444 150.088,144.472 149.934,144.968 149.745 C 145.554 149.522,145.870 149.522,145.870 149.745 C 145.870 149.934,146.107 150.088,146.397 150.088 C 146.687 150.088,146.924 149.951,146.924 149.783 C 146.924 149.616,148.538 149.401,150.511 149.306 C 152.745 149.199,154.147 148.982,154.231 148.732 C 154.304 148.511,154.517 148.330,154.703 148.330 C 154.889 148.330,155.421 147.975,155.887 147.540 C 156.352 147.105,156.977 146.545,157.277 146.295 C 157.576 146.046,157.821 145.532,157.821 145.153 C 157.821 144.774,157.979 144.464,158.172 144.464 C 158.366 144.464,158.524 144.069,158.524 143.585 C 158.524 143.102,158.682 142.707,158.875 142.707 C 159.069 142.707,159.227 142.469,159.227 142.179 C 159.227 141.889,159.424 141.650,159.666 141.647 C 159.959 141.643,159.930 141.528,159.578 141.301 C 159.165 141.034,159.254 140.959,159.988 140.954 C 160.504 140.951,160.978 140.807,161.043 140.633 C 161.107 140.459,162.420 140.239,163.959 140.145 C 165.550 140.046,166.814 139.804,166.888 139.582 C 166.960 139.367,167.321 139.192,167.692 139.192 C 168.062 139.192,168.366 139.033,168.366 138.840 C 168.366 138.647,168.535 138.489,168.742 138.489 C 169.229 138.489,170.123 137.594,170.123 137.108 C 170.123 136.901,170.281 136.731,170.475 136.731 C 170.668 136.731,170.826 136.480,170.826 136.173 C 170.826 135.486,174.341 131.945,175.256 131.711 C 175.774 131.578,175.726 131.530,175.044 131.494 C 173.018 131.388,175.263 130.844,177.967 130.786 C 179.747 130.748,180.924 130.566,181.096 130.301 C 181.303 129.982,181.464 130.007,181.749 130.404 C 182.034 130.801,182.171 130.823,182.306 130.492 C 182.404 130.250,182.794 130.053,183.172 130.053 C 183.551 130.053,184.181 129.754,184.573 129.389 C 184.965 129.024,185.750 128.632,186.316 128.519 C 187.186 128.345,187.346 128.145,187.346 127.239 C 187.346 126.608,187.564 126.081,187.873 125.962 C 188.174 125.847,188.401 125.322,188.401 124.743 C 188.401 124.166,188.591 123.724,188.840 123.720 C 189.134 123.717,189.105 123.600,188.752 123.369 C 188.329 123.091,188.315 122.965,188.683 122.727 C 189.196 122.395,189.175 117.133,188.659 116.814 C 188.498 116.715,188.540 116.424,188.752 116.169 C 189.032 115.832,189.032 115.639,188.752 115.466 C 188.475 115.295,188.483 115.087,188.778 114.731 C 189.112 114.330,189.040 114.236,188.403 114.236 C 187.789 114.236,187.656 114.081,187.800 113.533 C 187.998 112.775,187.872 112.615,187.522 113.181 M150.879 132.043 C 150.295 132.279,150.316 132.865,150.908 132.865 C 151.166 132.865,151.377 132.627,151.377 132.337 C 151.377 132.047,151.364 131.823,151.347 131.838 C 151.331 131.853,151.120 131.945,150.879 132.043 M149.198 132.531 C 148.864 133.071,149.322 133.420,149.773 132.969 C 150.025 132.716,150.031 132.520,149.791 132.371 C 149.594 132.250,149.328 132.321,149.198 132.531 M130.923 170.341 C 131.236 170.654,131.580 170.822,131.686 170.715 C 131.999 170.403,131.464 169.772,130.886 169.772 C 130.427 169.772,130.432 169.849,130.923 170.341 M180.258 182.073 C 180.193 182.266,179.475 182.450,178.661 182.482 C 177.848 182.513,177.253 182.654,177.340 182.794 C 177.489 183.036,177.161 183.136,174.429 183.683 C 173.593 183.850,173.286 184.101,173.286 184.621 C 173.286 185.011,173.010 185.588,172.671 185.903 C 171.710 186.797,171.178 187.943,171.178 189.116 C 171.178 190.360,171.455 190.283,173.422 188.489 C 174.110 187.860,174.884 187.346,175.140 187.346 C 175.396 187.346,175.757 187.201,175.940 187.024 C 176.286 186.690,178.270 186.236,179.350 186.244 C 179.688 186.246,179.965 186.100,179.965 185.918 C 179.965 185.737,180.360 185.589,180.844 185.589 C 181.327 185.589,181.722 185.744,181.722 185.934 C 181.722 186.123,182.118 186.378,182.601 186.499 C 183.151 186.637,183.480 186.968,183.480 187.384 C 183.480 187.802,183.727 188.049,184.145 188.049 C 184.561 188.049,184.892 188.378,185.030 188.928 C 185.151 189.411,185.406 189.807,185.595 189.807 C 185.788 189.807,185.940 190.886,185.940 192.246 C 185.940 193.651,186.105 194.788,186.329 194.927 C 186.600 195.094,186.574 195.258,186.241 195.469 C 185.840 195.724,185.840 195.772,186.241 195.777 C 186.504 195.780,186.634 196.001,186.532 196.269 C 186.318 196.825,187.789 198.243,188.579 198.243 C 188.868 198.243,189.104 198.411,189.104 198.616 C 189.104 198.857,190.102 198.955,191.916 198.891 C 193.462 198.837,194.728 198.650,194.728 198.475 C 194.728 198.300,194.949 198.341,195.221 198.566 C 195.599 198.880,195.756 198.869,195.897 198.521 C 196.015 198.228,196.183 198.191,196.370 198.418 C 196.696 198.813,198.243 198.955,198.243 198.591 C 198.243 197.970,200.671 198.291,200.877 198.939 C 200.994 199.309,201.399 199.710,201.775 199.830 C 202.249 199.980,202.460 200.365,202.460 201.078 C 202.460 202.049,202.737 202.270,203.779 202.135 C 204.020 202.104,204.218 202.236,204.218 202.429 C 204.218 202.763,204.963 202.960,207.733 203.360 C 208.409 203.457,209.509 203.619,210.177 203.718 C 210.844 203.817,211.556 204.035,211.758 204.203 C 211.961 204.370,212.720 204.617,213.445 204.753 C 214.170 204.888,214.763 205.133,214.763 205.296 C 214.763 205.570,215.721 206.568,217.031 207.659 C 217.330 207.908,217.575 208.501,217.575 208.977 C 217.575 209.453,217.733 209.842,217.926 209.842 C 218.471 209.842,218.386 217.114,217.838 217.370 C 217.487 217.534,217.487 217.616,217.838 217.780 C 218.465 218.072,218.384 218.648,217.750 218.405 C 217.385 218.264,217.223 218.429,217.223 218.943 C 217.223 219.367,217.449 219.684,217.750 219.684 C 218.040 219.684,218.278 219.507,218.278 219.291 C 218.278 219.068,218.590 218.980,219.002 219.088 C 219.714 219.274,220.530 218.134,220.149 217.487 C 220.064 217.342,220.171 217.223,220.387 217.223 C 220.603 217.223,220.681 217.064,220.561 216.869 C 220.441 216.675,220.589 216.420,220.892 216.304 C 221.194 216.188,221.441 215.868,221.441 215.593 C 221.441 215.317,221.718 214.990,222.056 214.865 C 222.395 214.740,222.777 214.481,222.905 214.288 C 223.034 214.096,224.220 213.875,225.542 213.797 C 226.863 213.719,227.996 213.509,228.061 213.330 C 228.211 212.914,229.877 212.902,229.877 213.318 C 229.877 213.489,230.402 213.728,231.043 213.849 C 232.225 214.071,234.798 216.114,234.798 216.831 C 234.798 217.047,234.949 217.223,235.133 217.223 C 235.318 217.223,235.573 217.777,235.700 218.453 C 235.827 219.130,236.071 219.684,236.243 219.684 C 236.690 219.684,236.630 222.632,236.173 223.089 C 235.898 223.364,235.898 223.537,236.173 223.707 C 236.383 223.837,236.555 224.180,236.555 224.470 C 236.555 224.760,236.424 224.916,236.262 224.817 C 236.101 224.717,235.970 224.866,235.970 225.147 C 235.970 225.429,236.068 225.659,236.188 225.659 C 236.308 225.659,236.430 225.979,236.459 226.370 C 236.489 226.760,236.390 227.004,236.240 226.912 C 236.090 226.819,235.995 227.211,236.029 227.783 C 236.063 228.355,235.919 228.834,235.708 228.848 C 234.454 228.930,232.513 229.233,232.378 229.367 C 232.291 229.454,233.196 229.525,234.388 229.525 C 236.321 229.525,236.555 229.449,236.555 228.822 C 236.555 228.436,236.714 228.120,236.907 228.120 C 237.100 228.120,237.258 228.278,237.258 228.471 C 237.258 228.664,237.496 228.822,237.786 228.822 C 238.330 228.822,238.458 227.546,238.343 223.286 C 238.315 222.225,238.447 221.441,238.655 221.441 C 238.853 221.441,239.016 220.888,239.016 220.211 C 239.016 219.534,238.878 218.981,238.710 218.981 C 238.541 218.981,238.295 217.873,238.161 216.520 C 238.028 215.167,237.777 214.060,237.605 214.060 C 237.233 214.060,235.627 212.505,235.449 211.973 C 235.381 211.770,233.862 211.500,232.074 211.373 C 230.286 211.246,228.822 211.008,228.822 210.844 C 228.822 210.679,228.111 210.545,227.241 210.545 C 225.893 210.545,225.659 210.441,225.659 209.842 C 225.659 209.455,225.501 209.139,225.308 209.139 C 225.114 209.139,224.956 208.969,224.956 208.761 C 224.956 208.176,221.634 205.029,220.704 204.734 C 220.247 204.589,219.446 204.014,218.924 203.455 C 218.125 202.599,217.610 202.405,215.666 202.223 C 214.396 202.104,213.357 201.872,213.357 201.707 C 213.357 201.541,212.408 201.406,211.248 201.406 C 210.076 201.406,209.139 201.250,209.139 201.054 C 209.139 200.861,208.902 200.703,208.612 200.703 C 208.284 200.703,208.084 200.371,208.084 199.824 C 208.084 199.341,207.926 198.946,207.733 198.946 C 207.540 198.946,207.381 198.550,207.381 198.067 C 207.381 197.583,207.223 197.188,207.030 197.188 C 206.837 197.188,206.678 196.956,206.678 196.673 C 206.678 196.001,204.741 194.025,204.083 194.025 C 203.803 194.025,203.511 193.836,203.434 193.605 C 203.218 192.958,196.954 192.926,195.235 193.563 C 194.472 193.845,193.651 194.091,193.409 194.109 C 193.168 194.127,192.970 194.274,192.970 194.435 C 192.970 194.596,192.804 194.728,192.602 194.728 C 192.399 194.728,191.857 195.134,191.397 195.630 C 190.323 196.789,189.807 196.055,189.807 193.374 C 189.807 192.302,189.636 191.554,189.367 191.444 C 189.037 191.310,189.058 191.174,189.455 190.893 C 189.813 190.641,189.841 190.519,189.543 190.515 C 189.257 190.512,189.104 189.956,189.104 188.928 C 189.104 188.058,188.946 187.346,188.752 187.346 C 188.559 187.346,188.401 187.023,188.401 186.628 C 188.401 185.938,188.033 185.330,187.070 184.430 C 185.849 183.286,185.586 183.128,184.911 183.128 C 184.510 183.128,184.183 182.970,184.183 182.777 C 184.183 182.583,183.471 182.425,182.601 182.425 C 181.731 182.425,181.019 182.267,181.019 182.074 C 181.019 181.617,180.410 181.617,180.258 182.073 M192.619 208.591 C 192.619 209.404,193.224 209.548,193.424 208.783 C 193.543 208.330,193.433 208.084,193.113 208.084 C 192.841 208.084,192.619 208.312,192.619 208.591 M194.971 209.364 C 195.078 209.643,195.316 209.821,195.500 209.760 C 196.074 209.569,195.987 209.034,195.367 208.943 C 194.979 208.886,194.843 209.031,194.971 209.364 M197.715 209.139 C 196.134 209.422,196.144 209.442,197.979 209.708 C 199.027 209.860,199.297 209.785,199.297 209.343 C 199.297 209.038,199.257 208.810,199.209 208.837 C 199.161 208.865,198.489 209.000,197.715 209.139 M248.858 221.090 C 248.858 221.283,248.001 221.441,246.954 221.441 C 245.838 221.441,244.994 221.607,244.916 221.843 C 244.820 222.130,244.586 222.141,244.096 221.880 C 243.405 221.514,242.301 222.149,242.786 222.634 C 242.903 222.751,242.686 222.847,242.304 222.847 C 241.512 222.847,240.046 224.644,239.912 225.779 C 239.863 226.196,239.720 227.250,239.595 228.120 C 239.404 229.441,239.433 229.572,239.769 228.918 C 239.990 228.487,240.465 228.042,240.824 227.928 C 241.183 227.814,241.476 227.573,241.476 227.393 C 241.476 227.213,241.655 227.065,241.874 227.065 C 242.093 227.065,242.528 226.788,242.841 226.450 C 243.473 225.766,243.799 225.656,245.958 225.396 C 246.779 225.297,247.452 225.079,247.452 224.910 C 247.452 224.742,247.676 224.605,247.950 224.605 C 248.223 224.605,248.527 224.407,248.625 224.165 C 248.767 223.814,248.808 223.814,248.830 224.165 C 248.845 224.407,249.095 224.605,249.385 224.605 C 249.675 224.605,249.912 224.752,249.912 224.932 C 249.912 225.113,250.255 225.369,250.673 225.502 C 251.426 225.741,253.076 227.182,253.076 227.601 C 253.076 227.721,253.273 228.039,253.515 228.308 C 254.653 229.577,254.840 229.877,254.495 229.877 C 254.294 229.877,254.130 230.203,254.130 230.601 C 254.130 231.086,254.275 231.238,254.569 231.060 C 254.899 230.863,254.895 230.938,254.552 231.360 C 254.245 231.739,254.217 231.998,254.464 232.151 C 254.667 232.276,254.833 232.853,254.833 233.433 C 254.833 234.013,254.977 234.399,255.154 234.290 C 255.330 234.181,255.431 234.488,255.378 234.972 C 255.306 235.631,255.446 235.852,255.936 235.852 C 256.296 235.852,256.591 236.000,256.591 236.180 C 256.591 237.221,273.245 237.584,274.066 236.561 C 274.443 236.092,274.496 236.102,274.506 236.643 C 274.520 237.446,276.209 237.485,276.514 236.690 C 276.687 236.240,276.832 236.331,277.209 237.129 C 277.725 238.220,277.652 233.236,277.132 231.882 C 276.827 231.088,275.579 231.100,275.546 231.898 C 275.525 232.424,275.478 232.411,275.220 231.810 C 275.016 231.337,274.908 231.279,274.888 231.634 C 274.870 231.947,274.752 232.018,274.599 231.810 C 274.289 231.387,273.118 231.371,272.456 231.780 C 272.157 231.965,271.863 231.895,271.671 231.592 C 271.417 231.191,271.362 231.198,271.353 231.634 C 271.344 232.065,271.287 232.074,271.040 231.685 C 270.830 231.352,270.665 231.326,270.498 231.597 C 270.168 232.130,267.939 232.090,267.719 231.547 C 267.580 231.204,267.468 231.211,267.209 231.579 C 267.007 231.867,265.974 232.100,264.560 232.177 C 263.260 232.248,261.876 232.543,261.409 232.849 C 260.951 233.149,260.462 233.280,260.322 233.140 C 260.182 233.000,259.920 233.118,259.740 233.402 C 259.454 233.855,259.409 233.854,259.383 233.392 C 259.363 233.037,259.254 233.094,259.051 233.568 C 258.779 234.201,258.746 234.179,258.724 233.347 C 258.711 232.839,258.472 232.234,258.193 232.003 C 257.915 231.772,257.780 231.341,257.893 231.046 C 258.006 230.751,257.878 230.367,257.608 230.193 C 257.193 229.925,257.198 229.819,257.645 229.499 C 258.042 229.214,258.064 229.076,257.733 228.942 C 257.475 228.837,257.293 228.124,257.293 227.211 C 257.293 226.358,257.142 225.659,256.958 225.659 C 256.773 225.659,256.517 225.098,256.388 224.412 C 256.198 223.397,255.966 223.126,255.142 222.962 C 254.586 222.850,254.130 222.621,254.130 222.452 C 254.130 222.283,253.893 222.144,253.603 222.144 C 253.313 222.144,253.076 221.986,253.076 221.793 C 253.076 221.599,252.364 221.441,251.494 221.441 C 250.624 221.441,249.912 221.283,249.912 221.090 C 249.912 220.896,249.675 220.738,249.385 220.738 C 249.095 220.738,248.858 220.896,248.858 221.090 M275.416 247.287 C 275.041 247.571,274.891 247.803,275.082 247.803 C 275.274 247.803,275.620 247.613,275.852 247.381 C 276.180 247.053,276.274 247.058,276.274 247.402 C 276.274 247.646,276.435 247.745,276.631 247.624 C 276.998 247.397,276.777 246.740,276.341 246.760 C 276.208 246.766,275.791 247.003,275.416 247.287 M262.800 248.037 C 262.355 248.483,262.567 248.943,263.038 248.552 C 263.297 248.337,263.639 248.278,263.797 248.421 C 263.955 248.565,263.971 248.484,263.832 248.243 C 263.552 247.757,263.159 247.679,262.800 248.037 " stroke="none" fill="#0cdc74" fill-rule="evenodd"></path><path id="path1" d="M250.729 63.867 C 249.358 64.130,249.097 64.887,248.968 68.977 C 248.900 71.129,248.799 72.935,248.743 72.991 C 248.687 73.047,245.250 73.179,241.105 73.285 C 229.302 73.587,229.741 73.369,229.625 78.993 C 229.535 83.411,229.855 83.004,226.485 82.986 C 222.686 82.965,215.241 83.948,213.507 84.699 C 211.706 85.478,210.927 87.015,210.648 90.344 L 210.443 92.794 207.330 92.794 C 205.619 92.794,204.218 92.921,204.218 93.075 C 204.218 93.230,203.680 93.293,203.022 93.217 C 201.322 93.018,200.267 94.125,200.400 95.968 C 200.454 96.719,200.386 97.446,200.249 97.583 C 200.112 97.720,200.000 98.896,200.000 100.197 C 200.000 102.860,199.833 103.040,197.628 102.744 C 196.778 102.630,196.129 102.710,195.983 102.948 C 195.850 103.163,195.582 103.339,195.389 103.339 C 195.196 103.339,195.135 103.181,195.255 102.988 C 195.374 102.794,195.225 102.636,194.924 102.636 C 194.623 102.636,194.376 102.873,194.376 103.163 C 194.376 103.639,193.959 103.847,193.234 103.732 C 193.089 103.709,192.970 103.849,192.970 104.042 C 192.970 104.236,192.733 104.394,192.443 104.394 C 191.924 104.394,191.847 104.577,191.776 105.975 C 191.751 106.462,191.536 106.643,191.075 106.564 C 190.499 106.464,190.441 106.605,190.636 107.618 C 190.804 108.497,190.767 108.656,190.486 108.260 C 190.211 107.871,190.147 108.297,190.243 109.889 C 190.381 112.181,191.699 114.236,193.032 114.236 C 193.357 114.236,193.860 114.473,194.150 114.763 C 194.440 115.053,194.926 115.290,195.230 115.290 C 195.534 115.290,196.098 115.606,196.485 115.993 C 196.872 116.380,197.188 116.637,197.188 116.566 C 197.188 116.494,197.910 116.570,198.792 116.735 C 200.823 117.114,204.191 114.961,204.212 113.269 C 204.215 113.027,204.344 112.830,204.499 112.830 C 204.653 112.830,204.983 112.266,205.232 111.578 C 205.484 110.881,206.061 110.155,206.533 109.940 C 207.000 109.727,207.381 109.394,207.381 109.200 C 207.381 109.005,207.486 108.950,207.613 109.078 C 207.741 109.206,208.052 109.015,208.304 108.655 C 208.614 108.212,209.348 107.944,210.570 107.827 C 211.564 107.731,212.499 107.456,212.647 107.216 C 212.819 106.938,212.997 106.908,213.137 107.135 C 213.283 107.371,213.642 107.356,214.206 107.090 C 214.672 106.870,214.963 106.542,214.851 106.361 C 214.738 106.178,214.904 106.130,215.222 106.252 C 215.538 106.374,216.027 106.242,216.309 105.960 C 216.591 105.679,216.986 105.448,217.186 105.448 C 217.742 105.448,220.035 103.034,220.035 102.449 C 220.035 102.165,220.351 101.933,220.738 101.933 C 221.544 101.933,221.635 101.576,221.002 100.905 C 220.642 100.523,220.737 100.470,221.529 100.610 C 222.194 100.728,222.496 100.632,222.496 100.303 C 222.496 100.040,222.663 99.824,222.868 99.824 C 223.073 99.824,223.142 99.982,223.023 100.176 C 222.692 100.710,223.080 100.596,223.701 99.975 C 224.005 99.671,224.253 99.592,224.253 99.799 C 224.253 100.296,225.550 100.286,225.858 99.787 C 226.026 99.516,226.190 99.542,226.401 99.875 C 226.623 100.226,226.704 100.235,226.708 99.912 C 226.712 99.615,227.337 99.473,228.647 99.473 C 229.710 99.473,230.580 99.315,230.580 99.121 C 230.580 98.928,230.964 98.770,231.434 98.770 C 231.903 98.770,232.524 98.533,232.814 98.243 C 233.104 97.953,233.533 97.715,233.766 97.715 C 234.254 97.715,235.852 96.086,235.852 95.588 C 235.852 95.405,236.011 95.255,236.204 95.255 C 236.397 95.255,236.555 94.850,236.555 94.355 C 236.555 93.845,236.708 93.550,236.907 93.673 C 237.100 93.793,237.258 93.668,237.258 93.396 C 237.258 91.954,238.960 89.631,240.016 89.631 C 240.400 89.631,240.807 89.829,240.920 90.070 C 241.084 90.422,241.166 90.422,241.330 90.070 C 241.566 89.565,242.531 89.471,242.531 89.953 C 242.531 90.131,244.192 90.289,246.221 90.306 C 248.472 90.324,249.912 90.198,249.912 89.983 C 249.912 89.789,250.228 89.631,250.615 89.631 C 251.002 89.631,251.318 89.473,251.318 89.279 C 251.318 89.086,251.542 88.928,251.815 88.928 C 252.489 88.928,254.833 86.612,254.833 85.946 C 254.833 85.653,254.991 85.413,255.185 85.413 C 255.378 85.413,255.536 85.176,255.536 84.886 C 255.536 84.596,255.673 84.359,255.841 84.359 C 256.009 84.359,256.236 83.690,256.346 82.872 C 256.455 82.055,256.714 81.330,256.919 81.261 C 257.125 81.193,257.293 80.928,257.293 80.673 C 257.293 79.920,259.304 79.438,262.443 79.438 C 264.165 79.438,265.378 79.292,265.378 79.086 C 265.378 78.893,265.773 78.735,266.257 78.735 C 266.740 78.735,267.135 78.893,267.135 79.086 C 267.135 79.279,267.373 79.438,267.663 79.438 C 267.953 79.438,268.190 79.279,268.190 79.086 C 268.190 78.580,269.152 78.652,269.363 79.174 C 269.505 79.525,269.546 79.525,269.568 79.174 C 269.587 78.870,270.302 78.735,271.880 78.735 C 273.471 78.735,274.167 78.868,274.171 79.174 C 274.174 79.469,274.261 79.490,274.434 79.236 C 274.900 78.556,275.891 78.401,276.416 78.926 C 276.866 79.377,276.957 79.353,277.153 78.736 C 277.275 78.348,277.530 78.032,277.718 78.032 C 278.279 78.032,278.018 64.712,277.446 64.139 C 276.999 63.692,252.916 63.447,250.729 63.867 M191.923 102.992 C 192.292 103.220,194.025 103.047,194.025 102.782 C 194.025 102.713,193.464 102.679,192.779 102.704 C 192.094 102.730,191.708 102.860,191.923 102.992 M190.744 103.222 C 190.615 103.351,190.528 104.023,190.550 104.716 L 190.591 105.975 190.865 104.569 C 191.152 103.092,191.130 102.837,190.744 103.222 M171.773 112.883 C 170.998 113.316,171.009 114.140,171.793 114.345 C 172.256 114.466,172.212 114.516,171.617 114.546 C 170.730 114.592,170.501 115.879,171.248 116.626 C 171.576 116.954,171.576 117.047,171.248 117.047 C 170.959 117.047,170.826 117.848,170.826 119.597 C 170.826 123.412,173.353 126.206,177.329 126.789 C 177.909 126.873,178.436 127.089,178.500 127.268 C 178.565 127.446,178.772 127.592,178.960 127.592 C 179.149 127.592,179.206 127.434,179.086 127.241 C 178.967 127.047,179.027 126.889,179.220 126.889 C 179.414 126.889,179.670 127.047,179.789 127.241 C 179.909 127.434,180.432 127.590,180.952 127.587 C 181.692 127.583,181.783 127.507,181.371 127.241 C 180.971 126.982,180.958 126.899,181.315 126.895 C 181.575 126.892,182.187 126.575,182.675 126.191 C 183.163 125.807,183.706 125.582,183.881 125.690 C 184.057 125.798,184.178 125.757,184.150 125.597 C 184.005 124.761,184.199 124.261,184.490 124.721 C 184.699 125.051,184.852 124.863,185.008 124.082 C 185.129 123.474,185.363 123.059,185.526 123.160 C 185.882 123.380,185.864 123.594,185.955 118.014 C 186.025 113.716,186.058 113.531,186.775 113.492 C 187.393 113.458,187.413 113.423,186.890 113.287 C 186.542 113.197,186.068 113.278,185.835 113.468 C 185.551 113.701,185.271 113.659,184.978 113.341 C 184.621 112.953,184.808 112.848,186.033 112.751 C 186.852 112.686,184.112 112.614,179.945 112.591 C 175.738 112.568,172.103 112.698,171.773 112.883 M173.286 113.357 C 173.046 113.647,172.806 113.884,172.754 113.884 C 172.701 113.884,172.568 113.647,172.456 113.357 C 172.316 112.992,172.480 112.830,172.989 112.830 C 173.603 112.830,173.652 112.917,173.286 113.357 M154.556 122.295 C 153.095 122.418,152.055 122.683,151.871 122.980 C 151.517 123.554,151.041 130.933,151.285 132.074 C 151.398 132.606,151.288 132.865,150.946 132.865 C 150.668 132.865,150.439 132.654,150.439 132.397 C 150.439 131.881,136.727 131.554,135.923 132.051 C 135.696 132.191,135.016 132.263,134.411 132.211 C 133.011 132.090,132.030 132.997,132.319 134.145 C 132.442 134.635,132.370 134.974,132.144 134.974 C 131.904 134.974,131.781 135.790,131.814 137.170 C 131.842 138.379,131.853 139.921,131.837 140.598 L 131.809 141.828 123.637 141.843 C 111.555 141.866,112.437 140.636,112.564 157.272 C 112.661 169.889,112.758 170.560,114.360 169.707 C 115.061 169.333,115.077 169.350,114.588 169.942 C 114.096 170.539,114.136 170.569,115.203 170.412 C 115.831 170.320,116.344 170.378,116.344 170.540 C 116.344 170.703,118.954 170.823,122.144 170.807 C 125.757 170.789,127.944 170.646,127.944 170.427 C 127.944 170.229,128.269 170.179,128.689 170.312 C 129.098 170.442,129.813 170.345,130.277 170.097 C 131.593 169.393,131.818 169.994,131.838 174.256 C 131.853 177.774,131.915 178.146,132.448 177.946 C 132.951 177.758,132.972 177.808,132.586 178.283 C 132.215 178.740,132.215 178.875,132.586 179.024 C 132.939 179.166,132.933 179.213,132.558 179.234 C 132.169 179.256,132.161 179.364,132.513 179.789 C 132.986 180.359,133.740 180.527,133.407 179.989 C 133.296 179.809,133.354 179.570,133.537 179.457 C 133.719 179.344,133.976 179.591,134.108 180.006 C 134.297 180.600,134.414 180.657,134.661 180.275 C 134.915 179.881,135.029 179.875,135.268 180.245 C 135.792 181.055,147.411 180.753,148.016 179.914 C 148.274 179.555,148.727 179.259,149.023 179.256 C 149.499 179.252,149.500 179.211,149.033 178.905 C 148.609 178.626,148.595 178.501,148.966 178.262 C 149.400 177.981,149.447 177.229,149.371 171.761 C 149.358 170.774,149.107 170.183,148.439 169.564 C 147.936 169.098,147.717 168.717,147.953 168.717 C 148.245 168.717,148.213 168.550,147.853 168.190 C 147.563 167.900,147.073 167.663,146.763 167.663 C 146.453 167.663,146.108 167.425,145.997 167.135 C 145.886 166.845,145.565 166.608,145.284 166.608 C 144.988 166.608,144.879 166.438,145.025 166.202 C 145.173 165.962,145.122 165.891,144.898 166.030 C 144.691 166.158,144.293 166.035,144.014 165.757 C 143.667 165.409,142.500 165.215,140.297 165.138 C 138.532 165.077,137.086 164.935,137.085 164.824 C 137.084 164.712,136.586 164.694,135.978 164.783 C 135.134 164.907,134.940 164.837,135.157 164.487 C 135.360 164.158,135.277 164.091,134.867 164.248 C 134.551 164.369,134.193 164.306,134.071 164.108 C 133.948 163.910,133.587 163.847,133.268 163.969 C 132.804 164.146,132.776 164.101,133.128 163.747 C 133.853 163.017,133.659 161.796,132.777 161.534 L 131.986 161.300 132.777 160.978 C 133.339 160.748,133.568 160.363,133.568 159.644 C 133.568 159.087,133.831 158.103,134.153 157.457 C 134.476 156.812,134.739 155.838,134.739 155.294 C 134.739 154.751,134.871 154.306,135.032 154.306 C 135.193 154.306,135.325 153.762,135.325 153.096 C 135.325 152.431,135.483 151.789,135.677 151.670 C 135.870 151.550,136.028 151.224,136.028 150.946 C 136.028 150.322,136.965 149.373,138.236 148.710 C 138.761 148.436,139.192 148.120,139.192 148.007 C 139.192 147.895,139.943 147.755,140.861 147.697 C 141.780 147.639,142.582 147.445,142.645 147.266 C 142.708 147.088,143.532 146.839,144.476 146.714 C 145.456 146.584,146.161 146.316,146.119 146.090 C 146.079 145.872,146.326 145.741,146.669 145.799 C 147.339 145.912,148.439 145.041,148.079 144.682 C 147.879 144.481,148.505 144.325,149.121 144.422 C 149.266 144.445,149.385 144.296,149.385 144.092 C 149.385 143.887,149.512 143.798,149.668 143.894 C 150.288 144.277,151.124 141.745,151.238 139.141 C 151.339 136.833,151.279 136.481,150.810 136.645 C 150.367 136.799,150.347 136.745,150.703 136.361 C 150.945 136.101,151.142 135.576,151.142 135.196 C 151.142 134.485,151.630 134.696,151.699 135.438 C 151.721 135.666,151.762 136.091,151.792 136.383 C 151.946 137.910,162.344 138.594,163.437 137.149 C 163.538 137.016,163.858 136.861,164.148 136.804 C 164.593 136.717,165.675 135.646,167.316 133.665 C 168.334 132.437,168.752 128.303,167.861 128.290 C 167.655 128.287,167.724 128.129,168.014 127.938 C 168.450 127.652,168.459 127.539,168.066 127.285 C 167.717 127.061,167.685 126.801,167.946 126.314 C 168.200 125.839,168.171 125.470,167.844 125.023 C 167.592 124.678,167.466 124.087,167.565 123.709 C 167.668 123.316,167.568 123.023,167.331 123.023 C 167.104 123.023,167.007 122.880,167.115 122.704 C 167.223 122.529,167.668 122.464,168.102 122.559 C 168.711 122.692,168.776 122.650,168.386 122.376 C 167.849 121.998,158.715 121.945,154.556 122.295 M149.773 132.969 C 149.322 133.420,148.864 133.071,149.198 132.531 C 149.328 132.321,149.594 132.250,149.791 132.371 C 150.031 132.520,150.025 132.716,149.773 132.969 M115.279 142.970 C 115.273 143.115,114.851 143.538,114.342 143.909 C 113.469 144.546,113.493 144.206,114.396 143.159 C 114.811 142.678,115.296 142.574,115.279 142.970 M157.549 174.961 C 156.723 175.029,156.139 175.234,156.252 175.416 C 156.364 175.598,156.210 175.767,155.908 175.791 C 153.811 175.959,151.728 178.164,151.728 180.216 C 151.728 180.464,151.605 180.668,151.454 180.668 C 151.138 180.668,151.111 182.460,151.366 186.480 C 151.526 189.008,151.618 189.305,152.246 189.305 C 152.903 189.305,152.909 189.276,152.329 188.853 C 151.989 188.604,151.890 188.401,152.109 188.401 C 152.654 188.401,153.079 189.150,152.957 189.895 C 152.864 190.458,153.303 190.510,158.133 190.510 C 163.388 190.510,167.144 190.038,166.766 189.426 C 166.656 189.249,166.853 189.091,167.202 189.076 C 167.571 189.060,167.654 188.974,167.399 188.871 C 166.932 188.682,166.778 187.347,167.223 187.346 C 167.368 187.345,167.530 186.713,167.583 185.940 C 167.643 185.061,167.528 184.534,167.277 184.534 C 166.981 184.534,166.986 184.399,167.293 184.029 C 167.977 183.204,167.107 178.207,166.279 178.207 C 166.135 178.207,165.838 177.812,165.618 177.329 C 165.397 176.845,165.035 176.450,164.812 176.450 C 164.588 176.450,164.110 176.109,163.749 175.693 C 163.067 174.906,161.066 174.670,157.549 174.961 M179.965 185.918 C 179.965 186.100,179.688 186.246,179.350 186.244 C 178.270 186.236,176.286 186.690,175.940 187.024 C 175.757 187.201,175.399 187.346,175.146 187.346 C 174.893 187.346,174.194 187.781,173.591 188.313 C 172.989 188.844,172.318 189.227,172.101 189.162 C 171.883 189.098,171.822 189.163,171.966 189.306 C 172.110 189.450,171.912 189.789,171.527 190.059 C 170.736 190.612,170.572 192.541,171.213 193.739 C 171.494 194.264,171.494 194.396,171.213 194.222 C 170.981 194.079,170.826 194.262,170.826 194.678 C 170.826 195.059,171.024 195.452,171.265 195.549 C 171.617 195.691,171.617 195.732,171.265 195.754 C 171.024 195.770,170.826 196.125,170.826 196.544 C 170.826 196.963,170.932 197.199,171.061 197.070 C 171.190 196.941,171.584 197.096,171.937 197.415 C 172.544 197.964,172.545 198.018,171.965 198.456 C 171.402 198.882,171.413 198.908,172.104 198.784 C 172.716 198.675,172.825 198.791,172.693 199.413 C 172.553 200.073,172.594 200.105,172.998 199.649 C 173.594 198.975,174.368 198.812,174.253 199.385 C 174.188 199.709,174.999 199.831,177.348 199.849 C 181.123 199.878,181.371 199.993,181.371 201.722 C 181.371 203.583,182.237 206.257,183.158 207.238 C 184.117 208.258,186.369 209.083,186.568 208.487 C 186.726 208.011,188.401 207.938,188.401 208.407 C 188.401 208.584,188.203 208.809,187.961 208.906 C 187.332 209.160,189.126 209.170,190.066 208.918 C 190.499 208.802,190.759 208.556,190.645 208.370 C 190.530 208.184,190.753 208.231,191.141 208.473 C 191.536 208.720,191.771 209.155,191.676 209.465 C 191.583 209.769,191.794 209.583,192.144 209.051 C 192.821 208.024,193.797 207.705,193.443 208.626 C 193.280 209.051,193.433 209.132,194.151 209.002 C 194.655 208.911,195.140 208.953,195.228 209.096 C 195.317 209.239,196.243 209.262,197.287 209.147 C 199.834 208.867,200.006 209.113,200.019 213.083 C 200.031 216.521,200.273 218.624,200.652 218.575 C 201.362 218.483,201.757 218.691,201.757 219.156 C 201.757 219.446,201.916 219.684,202.109 219.684 C 202.302 219.684,202.460 219.552,202.460 219.391 C 202.460 219.230,202.691 219.098,202.972 219.098 C 203.254 219.098,203.399 219.235,203.296 219.403 C 203.192 219.571,205.943 219.690,209.442 219.668 C 213.901 219.640,215.835 219.506,215.973 219.216 C 216.119 218.910,216.221 218.918,216.374 219.244 C 216.699 219.941,217.223 219.755,217.223 218.943 C 217.223 218.429,217.385 218.264,217.750 218.405 C 218.384 218.648,218.465 218.072,217.838 217.780 C 217.487 217.616,217.487 217.534,217.838 217.370 C 218.386 217.114,218.471 209.842,217.926 209.842 C 217.733 209.842,217.575 209.453,217.575 208.977 C 217.575 208.501,217.330 207.908,217.031 207.659 C 215.721 206.568,214.763 205.570,214.763 205.296 C 214.763 205.133,214.170 204.888,213.445 204.753 C 212.720 204.617,211.961 204.370,211.758 204.203 C 211.556 204.035,210.844 203.817,210.177 203.718 C 209.509 203.619,208.409 203.457,207.733 203.360 C 204.963 202.960,204.218 202.763,204.218 202.429 C 204.218 202.236,204.020 202.104,203.779 202.135 C 202.737 202.270,202.460 202.049,202.460 201.078 C 202.460 200.365,202.249 199.980,201.775 199.830 C 201.399 199.710,200.994 199.309,200.877 198.939 C 200.671 198.291,198.243 197.970,198.243 198.591 C 198.243 198.955,196.696 198.813,196.370 198.418 C 196.183 198.191,196.015 198.228,195.897 198.521 C 195.756 198.869,195.599 198.880,195.221 198.566 C 194.949 198.341,194.728 198.300,194.728 198.475 C 194.728 198.650,193.462 198.837,191.916 198.891 C 190.102 198.955,189.104 198.857,189.104 198.616 C 189.104 198.411,188.868 198.243,188.579 198.243 C 187.789 198.243,186.318 196.825,186.532 196.269 C 186.634 196.001,186.504 195.780,186.241 195.777 C 185.840 195.772,185.840 195.724,186.241 195.469 C 186.574 195.258,186.600 195.094,186.329 194.927 C 186.105 194.788,185.940 193.651,185.940 192.246 C 185.940 190.886,185.788 189.807,185.595 189.807 C 185.406 189.807,185.151 189.411,185.030 188.928 C 184.892 188.378,184.561 188.049,184.145 188.049 C 183.727 188.049,183.480 187.802,183.480 187.384 C 183.480 186.968,183.151 186.637,182.601 186.499 C 182.118 186.378,181.722 186.123,181.722 185.934 C 181.722 185.744,181.327 185.589,180.844 185.589 C 180.360 185.589,179.965 185.737,179.965 185.918 M278.032 210.038 C 278.032 221.629,278.122 224.592,278.471 224.387 C 279.827 223.586,281.224 222.315,282.034 221.147 L 282.953 219.822 282.953 210.069 C 282.953 202.187,282.854 200.125,282.437 199.320 C 281.911 198.303,278.881 195.431,278.334 195.431 C 278.168 195.431,278.032 202.004,278.032 210.038 M182.425 200.703 C 182.425 201.090,182.267 201.406,182.074 201.406 C 181.880 201.406,181.722 201.090,181.722 200.703 C 181.722 200.316,181.880 200.000,182.074 200.000 C 182.267 200.000,182.425 200.316,182.425 200.703 M183.151 204.569 C 183.332 204.569,183.480 204.729,183.480 204.924 C 183.480 205.512,185.447 207.381,186.066 207.381 C 186.384 207.381,186.643 207.540,186.643 207.733 C 186.643 207.926,186.327 208.084,185.940 208.084 C 185.554 208.084,185.237 207.943,185.237 207.771 C 185.237 207.599,184.842 207.358,184.359 207.237 C 183.807 207.099,183.480 206.768,183.480 206.349 C 183.480 205.983,183.311 205.626,183.106 205.558 C 182.900 205.489,182.683 204.804,182.625 204.035 C 182.566 203.265,182.586 203.071,182.670 203.603 C 182.753 204.134,182.969 204.569,183.151 204.569 M228.061 213.330 C 227.996 213.509,226.863 213.719,225.542 213.797 C 224.220 213.875,223.034 214.096,222.905 214.288 C 222.777 214.481,222.395 214.740,222.056 214.865 C 221.718 214.990,221.441 215.317,221.441 215.593 C 221.441 215.868,221.194 216.188,220.892 216.304 C 220.589 216.420,220.441 216.675,220.561 216.869 C 220.681 217.064,220.638 217.223,220.466 217.223 C 220.035 217.223,220.004 217.488,219.830 222.606 C 219.736 225.368,219.805 227.031,220.008 226.906 C 220.511 226.595,220.688 227.156,220.335 227.944 C 220.046 228.591,220.033 228.584,220.171 227.855 C 220.254 227.420,220.178 227.153,220.002 227.261 C 219.482 227.583,219.637 228.320,220.365 228.978 C 221.025 229.576,231.456 229.630,234.446 229.051 C 234.930 228.958,235.497 228.868,235.708 228.852 C 235.919 228.836,236.063 228.355,236.029 227.783 C 235.995 227.211,236.090 226.819,236.240 226.912 C 236.390 227.004,236.489 226.760,236.459 226.370 C 236.430 225.979,236.308 225.659,236.188 225.659 C 236.068 225.659,235.970 225.429,235.970 225.147 C 235.970 224.866,236.101 224.717,236.262 224.817 C 236.694 225.083,236.619 224.106,236.173 223.660 C 235.898 223.385,235.898 223.212,236.173 223.042 C 236.629 222.760,236.693 219.684,236.243 219.684 C 236.071 219.684,235.827 219.130,235.700 218.453 C 235.573 217.777,235.318 217.223,235.133 217.223 C 234.949 217.223,234.798 217.047,234.798 216.831 C 234.798 216.114,232.225 214.071,231.043 213.849 C 230.402 213.728,229.877 213.489,229.877 213.318 C 229.877 212.902,228.211 212.914,228.061 213.330 M248.534 224.165 C 248.519 224.407,248.269 224.605,247.979 224.605 C 247.689 224.605,247.452 224.742,247.452 224.910 C 247.452 225.079,246.779 225.297,245.958 225.396 C 243.799 225.656,243.473 225.766,242.841 226.450 C 242.528 226.788,242.166 227.065,242.035 227.065 C 241.678 227.065,240.437 228.151,239.450 229.328 C 238.586 230.359,238.985 237.310,239.867 236.578 C 240.183 236.316,240.305 236.360,240.305 236.737 C 240.305 237.024,240.054 237.268,239.748 237.281 C 239.391 237.295,239.475 237.417,239.982 237.621 C 240.417 237.796,240.773 238.108,240.773 238.314 C 240.773 238.576,240.978 238.579,241.453 238.325 C 242.005 238.030,242.174 238.094,242.355 238.665 C 242.602 239.442,243.761 239.618,244.083 238.928 C 244.247 238.576,244.329 238.576,244.493 238.928 C 244.625 239.211,245.483 239.367,246.903 239.367 L 249.108 239.367 249.333 241.740 C 249.722 245.828,251.351 249.016,252.315 247.574 C 252.729 246.954,253.779 246.730,253.779 247.261 C 253.779 247.531,253.502 247.834,253.163 247.935 C 252.825 248.035,253.221 248.033,254.042 247.930 C 255.000 247.809,255.536 247.879,255.536 248.124 C 255.536 248.343,256.218 248.506,257.138 248.506 C 258.260 248.506,258.666 248.384,258.490 248.100 C 258.334 247.847,258.394 247.790,258.651 247.949 C 258.877 248.089,258.970 248.353,258.856 248.537 C 258.625 248.912,260.887 248.716,261.554 248.304 C 261.817 248.142,261.879 248.196,261.721 248.452 C 261.320 249.100,262.267 248.920,262.753 248.256 C 263.117 247.758,263.287 247.732,263.736 248.105 C 264.360 248.623,271.705 248.983,271.705 248.495 C 271.705 248.328,272.192 248.361,272.787 248.568 C 273.564 248.839,274.108 248.836,274.720 248.558 C 275.339 248.276,275.571 248.275,275.571 248.557 C 275.571 248.801,275.791 248.766,276.166 248.461 C 276.570 248.134,276.676 248.120,276.497 248.418 C 276.329 248.698,276.440 248.858,276.801 248.858 C 277.114 248.858,277.273 248.701,277.155 248.510 C 277.032 248.311,277.173 248.252,277.486 248.372 C 277.916 248.537,278.032 248.316,278.032 247.325 C 278.032 246.289,277.923 246.101,277.417 246.259 C 276.859 246.432,276.861 246.412,277.436 246.044 C 277.937 245.723,277.983 245.532,277.657 245.139 C 277.429 244.864,277.382 244.640,277.552 244.640 C 277.722 244.640,277.882 243.218,277.906 241.481 C 277.930 239.743,277.828 238.397,277.678 238.490 C 277.528 238.582,277.296 238.071,277.161 237.353 C 276.959 236.279,276.856 236.155,276.578 236.654 C 276.121 237.470,274.520 237.462,274.506 236.643 C 274.496 236.102,274.443 236.092,274.066 236.561 C 273.245 237.584,256.591 237.221,256.591 236.180 C 256.591 236.000,256.296 235.852,255.936 235.852 C 255.446 235.852,255.306 235.631,255.378 234.972 C 255.431 234.488,255.330 234.181,255.154 234.290 C 254.977 234.399,254.833 234.036,254.833 233.483 C 254.833 232.930,254.635 232.265,254.394 232.005 C 254.152 231.744,254.126 231.627,254.335 231.743 C 254.545 231.860,254.716 231.732,254.716 231.459 C 254.716 231.186,254.584 231.044,254.423 231.143 C 254.262 231.243,254.130 230.999,254.130 230.601 C 254.130 230.203,254.300 229.877,254.507 229.877 C 254.734 229.877,254.700 229.674,254.419 229.362 C 253.462 228.300,253.076 227.792,253.076 227.591 C 253.076 227.180,251.417 225.738,250.673 225.502 C 250.255 225.369,249.912 225.113,249.912 224.932 C 249.912 224.752,249.688 224.605,249.414 224.605 C 249.140 224.605,248.836 224.407,248.739 224.165 C 248.597 223.814,248.556 223.814,248.534 224.165 M250.710 243.559 C 250.834 244.034,250.742 244.180,250.400 244.049 C 250.131 243.946,249.912 243.641,249.912 243.372 C 249.912 242.641,250.507 242.781,250.710 243.559 M251.318 245.325 C 251.318 245.702,251.594 246.165,251.930 246.353 C 252.267 246.542,252.438 246.800,252.311 246.927 C 251.992 247.246,250.615 245.816,250.615 245.167 C 250.615 244.877,250.773 244.640,250.967 244.640 C 251.160 244.640,251.318 244.948,251.318 245.325 M276.816 247.124 C 276.943 247.330,276.944 247.602,276.817 247.728 C 276.691 247.855,276.458 247.749,276.299 247.492 C 276.097 247.165,275.938 247.142,275.770 247.414 C 275.638 247.628,275.351 247.803,275.132 247.803 C 274.913 247.803,275.041 247.571,275.416 247.287 C 276.240 246.664,276.512 246.632,276.816 247.124 " stroke="none" fill="#24e484" fill-rule="evenodd"></path><path id="path2" d="M277.558 80.194 C 277.189 82.212,277.693 82.125,266.798 82.047 C 260.149 82.000,258.699 82.076,258.699 82.471 C 258.699 82.736,258.541 82.953,258.348 82.953 C 258.153 82.953,257.996 83.890,257.996 85.062 C 257.996 86.233,257.840 87.170,257.645 87.170 C 257.452 87.170,257.293 87.566,257.293 88.049 C 257.293 88.533,257.155 88.928,256.986 88.928 C 256.817 88.928,256.586 89.392,256.472 89.959 C 256.290 90.868,256.078 91.018,254.671 91.229 C 253.793 91.361,253.076 91.608,253.076 91.780 C 253.076 91.951,251.968 92.091,250.615 92.091 C 249.209 92.091,248.155 92.242,248.155 92.443 C 248.155 92.644,247.100 92.794,245.694 92.794 C 244.222 92.794,243.234 92.941,243.234 93.161 C 243.234 93.934,240.155 97.012,239.382 97.012 C 239.181 97.012,239.016 97.408,239.016 97.891 C 239.016 98.374,238.868 98.770,238.688 98.770 C 238.508 98.770,238.260 99.086,238.137 99.473 C 238.014 99.859,237.620 100.176,237.260 100.176 C 236.900 100.176,236.370 100.412,236.081 100.700 C 235.681 101.100,235.509 101.121,235.353 100.788 C 235.191 100.441,235.107 100.442,234.944 100.791 C 234.832 101.033,234.357 101.230,233.890 101.230 C 233.423 101.230,233.040 101.388,233.040 101.582 C 233.040 102.093,231.022 102.013,230.813 101.494 C 230.671 101.142,230.630 101.142,230.608 101.494 C 230.592 101.736,230.185 101.933,229.701 101.933 C 229.218 101.933,228.822 102.072,228.822 102.241 C 228.822 102.410,228.370 102.639,227.817 102.749 C 226.950 102.923,226.784 103.150,226.617 104.395 C 226.505 105.234,226.116 106.106,225.690 106.476 C 225.286 106.826,224.956 107.291,224.956 107.510 C 224.956 107.729,224.754 107.909,224.506 107.909 C 224.259 107.909,223.829 108.225,223.550 108.612 C 223.271 108.998,222.775 109.315,222.447 109.315 C 222.119 109.315,221.792 109.492,221.720 109.709 C 221.641 109.946,219.982 110.220,217.560 110.395 C 215.345 110.555,212.918 110.793,212.166 110.923 C 211.071 111.113,210.858 111.066,211.093 110.686 C 211.254 110.426,210.841 110.560,210.175 110.986 C 209.501 111.415,209.009 111.996,209.066 112.294 C 209.123 112.589,209.027 112.830,208.854 112.830 C 208.680 112.830,208.441 113.858,208.324 115.115 C 208.083 117.693,206.149 120.211,204.409 120.211 C 203.949 120.211,203.521 120.346,203.456 120.512 C 203.239 121.070,200.008 121.223,199.485 120.700 C 199.109 120.325,198.957 120.314,198.798 120.653 C 198.636 121.000,198.552 120.999,198.389 120.650 C 198.276 120.409,197.950 120.211,197.664 120.211 C 196.766 120.211,193.673 119.090,193.673 118.764 C 193.673 118.593,193.504 118.453,193.297 118.453 C 192.868 118.453,191.916 117.581,191.916 117.188 C 191.916 117.045,191.639 116.611,191.301 116.224 C 190.862 115.723,190.837 115.608,191.213 115.824 C 191.635 116.068,191.661 116.028,191.340 115.621 C 191.120 115.342,190.833 114.460,190.701 113.660 C 190.464 112.221,190.450 112.210,189.431 112.595 C 188.381 112.991,188.033 114.028,188.840 114.355 C 189.182 114.494,189.173 114.608,188.803 114.868 C 188.454 115.112,188.435 115.270,188.732 115.453 C 189.028 115.636,189.033 115.830,188.752 116.169 C 188.540 116.424,188.498 116.715,188.659 116.814 C 189.175 117.133,189.196 122.395,188.683 122.727 C 188.315 122.965,188.329 123.091,188.752 123.369 C 189.105 123.600,189.134 123.717,188.840 123.720 C 188.591 123.724,188.401 124.166,188.401 124.743 C 188.401 125.322,188.174 125.847,187.873 125.962 C 187.564 126.081,187.346 126.608,187.346 127.239 C 187.346 128.145,187.186 128.345,186.316 128.519 C 185.750 128.632,184.965 129.024,184.573 129.389 C 184.181 129.754,183.551 130.053,183.172 130.053 C 182.794 130.053,182.404 130.250,182.306 130.492 C 182.171 130.823,182.034 130.801,181.749 130.404 C 181.464 130.007,181.303 129.982,181.096 130.301 C 180.924 130.566,179.747 130.748,177.967 130.786 C 175.263 130.844,173.018 131.388,175.044 131.494 C 175.726 131.530,175.774 131.578,175.256 131.711 C 174.341 131.945,170.826 135.486,170.826 136.173 C 170.826 136.480,170.668 136.731,170.475 136.731 C 170.281 136.731,170.123 136.901,170.123 137.108 C 170.123 137.594,169.229 138.489,168.742 138.489 C 168.535 138.489,168.366 138.647,168.366 138.840 C 168.366 139.033,168.062 139.192,167.692 139.192 C 167.321 139.192,166.960 139.367,166.888 139.582 C 166.814 139.804,165.550 140.046,163.959 140.145 C 162.420 140.239,161.107 140.459,161.043 140.633 C 160.978 140.807,160.504 140.951,159.988 140.954 C 159.254 140.959,159.165 141.034,159.578 141.301 C 159.930 141.528,159.959 141.643,159.666 141.647 C 159.424 141.650,159.227 141.889,159.227 142.179 C 159.227 142.469,159.069 142.707,158.875 142.707 C 158.682 142.707,158.524 143.102,158.524 143.585 C 158.524 144.069,158.366 144.464,158.172 144.464 C 157.979 144.464,157.821 144.774,157.821 145.153 C 157.821 145.532,157.576 146.046,157.277 146.295 C 156.977 146.545,156.352 147.105,155.887 147.540 C 155.421 147.975,154.889 148.330,154.703 148.330 C 154.517 148.330,154.304 148.511,154.231 148.732 C 154.147 148.982,152.745 149.199,150.511 149.306 C 148.538 149.401,146.924 149.616,146.924 149.783 C 146.924 149.951,146.687 150.088,146.397 150.088 C 146.107 150.088,145.870 149.934,145.870 149.745 C 145.870 149.522,145.554 149.522,144.968 149.745 C 144.472 149.934,143.444 150.088,142.684 150.088 C 141.923 150.088,141.301 150.246,141.301 150.439 C 141.301 150.633,141.024 150.793,140.685 150.796 C 140.160 150.801,140.147 150.851,140.598 151.142 C 141.024 151.418,140.973 151.484,140.334 151.488 C 139.620 151.493,139.539 151.673,139.504 153.339 C 139.401 158.293,139.165 161.135,138.841 161.335 C 138.215 161.722,142.786 163.056,145.518 163.282 C 146.968 163.403,148.207 163.647,148.272 163.824 C 148.336 164.002,148.783 164.148,149.264 164.148 C 150.166 164.148,151.142 164.866,151.142 165.528 C 151.142 165.736,151.459 165.905,151.845 165.905 C 152.232 165.905,152.548 166.063,152.548 166.257 C 152.548 166.450,152.713 166.608,152.915 166.608 C 153.286 166.608,153.994 167.118,154.762 167.938 C 155.854 169.106,156.063 169.396,156.063 169.746 C 156.063 169.954,156.221 170.123,156.415 170.123 C 156.608 170.123,156.766 170.439,156.766 170.826 C 156.766 171.395,157.001 171.529,157.996 171.529 C 158.673 171.529,159.227 171.673,159.227 171.849 C 159.227 172.025,160.571 172.281,162.214 172.418 C 163.858 172.555,165.202 172.806,165.202 172.977 C 165.202 173.147,165.518 173.286,165.905 173.286 C 166.292 173.286,166.608 173.445,166.608 173.638 C 166.608 173.831,166.778 173.989,166.985 173.989 C 167.458 173.989,168.366 174.878,168.366 175.341 C 168.366 175.532,168.548 175.749,168.770 175.823 C 168.993 175.897,169.250 176.860,169.341 177.961 C 169.432 179.063,169.654 179.965,169.833 179.965 C 170.163 179.965,170.161 185.840,169.830 186.444 C 169.502 187.043,169.585 189.275,169.945 189.538 C 170.146 189.684,170.033 189.798,169.684 189.801 C 169.345 189.804,169.069 189.965,169.069 190.158 C 169.069 191.236,171.072 190.474,171.103 189.384 C 171.139 188.112,171.755 186.740,172.669 185.899 C 173.009 185.586,173.286 185.011,173.286 184.621 C 173.286 184.114,173.589 183.849,174.341 183.695 C 174.921 183.577,175.868 183.383,176.446 183.265 C 177.024 183.146,177.426 182.935,177.340 182.794 C 177.253 182.654,177.838 182.514,178.641 182.482 C 179.443 182.451,180.239 182.227,180.410 181.986 C 180.659 181.634,180.757 181.635,180.900 181.986 C 181.004 182.244,181.718 182.425,182.630 182.425 C 183.484 182.425,184.183 182.583,184.183 182.777 C 184.183 182.970,184.506 183.128,184.901 183.128 C 185.591 183.128,186.199 183.496,187.099 184.459 C 188.243 185.680,188.401 185.943,188.401 186.618 C 188.401 187.019,188.559 187.346,188.752 187.346 C 188.946 187.346,189.104 188.058,189.104 188.928 C 189.104 189.956,189.257 190.512,189.543 190.515 C 189.841 190.519,189.813 190.641,189.455 190.893 C 189.058 191.174,189.037 191.310,189.367 191.444 C 189.636 191.554,189.807 192.302,189.807 193.374 C 189.807 196.055,190.323 196.789,191.397 195.630 C 191.857 195.134,192.399 194.728,192.602 194.728 C 192.804 194.728,192.970 194.596,192.970 194.435 C 192.970 194.274,193.168 194.127,193.409 194.109 C 193.651 194.091,194.472 193.845,195.235 193.563 C 196.954 192.926,203.218 192.958,203.434 193.605 C 203.511 193.836,203.803 194.025,204.083 194.025 C 204.741 194.025,206.678 196.001,206.678 196.673 C 206.678 196.956,206.837 197.188,207.030 197.188 C 207.223 197.188,207.381 197.583,207.381 198.067 C 207.381 198.550,207.540 198.946,207.733 198.946 C 207.926 198.946,208.084 199.341,208.084 199.824 C 208.084 200.371,208.284 200.703,208.612 200.703 C 208.902 200.703,209.139 200.861,209.139 201.054 C 209.139 201.250,210.076 201.406,211.248 201.406 C 212.408 201.406,213.357 201.541,213.357 201.707 C 213.357 201.872,214.396 202.104,215.666 202.223 C 217.610 202.405,218.125 202.599,218.924 203.455 C 219.446 204.014,220.247 204.589,220.704 204.734 C 221.634 205.029,224.956 208.176,224.956 208.761 C 224.956 208.969,225.114 209.139,225.308 209.139 C 225.501 209.139,225.659 209.455,225.659 209.842 C 225.659 210.441,225.893 210.545,227.241 210.545 C 228.111 210.545,228.822 210.679,228.822 210.844 C 228.822 211.008,230.286 211.246,232.074 211.373 C 233.862 211.500,235.381 211.770,235.449 211.973 C 235.627 212.505,237.233 214.060,237.605 214.060 C 237.777 214.060,238.028 215.167,238.161 216.520 C 238.295 217.873,238.541 218.981,238.710 218.981 C 238.878 218.981,239.016 219.534,239.016 220.211 C 239.016 220.888,238.875 221.441,238.703 221.441 C 238.532 221.441,238.381 223.040,238.368 224.993 C 238.350 227.792,238.229 228.631,237.796 228.947 C 237.337 229.283,237.420 229.350,238.290 229.350 C 239.371 229.350,239.534 228.990,239.912 225.779 C 240.046 224.644,241.512 222.847,242.304 222.847 C 242.686 222.847,242.903 222.751,242.786 222.634 C 242.301 222.149,243.405 221.514,244.096 221.880 C 244.586 222.141,244.820 222.130,244.916 221.843 C 244.994 221.607,245.838 221.441,246.954 221.441 C 248.001 221.441,248.858 221.283,248.858 221.090 C 248.858 220.896,249.095 220.738,249.385 220.738 C 249.675 220.738,249.912 220.896,249.912 221.090 C 249.912 221.283,250.624 221.441,251.494 221.441 C 252.364 221.441,253.076 221.599,253.076 221.793 C 253.076 221.986,253.313 222.144,253.603 222.144 C 253.893 222.144,254.130 222.283,254.130 222.452 C 254.130 222.621,254.586 222.850,255.142 222.962 C 255.966 223.126,256.198 223.397,256.388 224.412 C 256.517 225.098,256.773 225.659,256.958 225.659 C 257.142 225.659,257.293 226.358,257.293 227.211 C 257.293 228.124,257.475 228.837,257.733 228.942 C 258.064 229.076,258.042 229.214,257.645 229.499 C 257.198 229.819,257.193 229.925,257.608 230.193 C 257.878 230.367,258.006 230.751,257.893 231.046 C 257.780 231.341,257.915 231.772,258.193 232.003 C 258.472 232.234,258.711 232.839,258.724 233.347 C 258.746 234.179,258.779 234.201,259.051 233.568 C 259.254 233.094,259.363 233.037,259.383 233.392 C 259.409 233.854,259.454 233.855,259.740 233.402 C 259.920 233.118,260.182 233.000,260.322 233.140 C 260.462 233.280,260.951 233.149,261.409 232.849 C 261.876 232.543,263.260 232.248,264.560 232.177 C 265.974 232.100,267.007 231.867,267.209 231.579 C 267.468 231.211,267.580 231.204,267.719 231.547 C 267.939 232.090,270.168 232.130,270.498 231.597 C 270.665 231.326,270.830 231.352,271.040 231.685 C 271.287 232.074,271.344 232.065,271.353 231.634 C 271.362 231.198,271.417 231.191,271.671 231.592 C 271.863 231.895,272.157 231.965,272.456 231.780 C 273.118 231.371,274.289 231.387,274.599 231.810 C 274.751 232.017,274.862 231.945,274.868 231.634 C 274.878 231.166,274.917 231.166,275.220 231.634 C 275.447 231.986,275.562 232.015,275.566 231.722 C 275.569 231.481,275.885 231.283,276.267 231.283 C 277.043 231.283,277.195 231.700,277.673 235.149 C 277.914 236.890,277.960 235.970,277.866 231.283 C 277.798 227.900,277.636 224.736,277.505 224.253 C 277.321 223.573,277.353 223.493,277.644 223.902 C 277.914 224.280,278.021 220.309,278.021 209.842 C 278.021 199.314,277.915 195.402,277.642 195.782 C 277.344 196.195,277.326 196.157,277.559 195.606 C 277.722 195.220,277.898 173.234,277.950 146.749 C 278.060 90.666,277.984 77.855,277.558 80.194 M168.893 122.219 C 169.473 122.298,170.145 122.621,170.387 122.936 C 170.781 123.450,170.826 123.452,170.826 122.952 C 170.826 122.292,170.070 121.948,168.776 122.021 C 167.886 122.071,167.892 122.081,168.893 122.219 M171.178 197.695 C 171.178 198.477,171.728 198.633,171.786 197.867 C 171.814 197.493,171.688 197.188,171.507 197.188 C 171.326 197.188,171.178 197.416,171.178 197.695 M277.240 215.005 C 277.181 217.868,277.132 215.624,277.132 210.018 C 277.132 204.411,277.181 202.069,277.240 204.812 C 277.299 207.555,277.299 212.142,277.240 215.005 M192.619 209.521 C 192.619 209.698,192.961 209.842,193.380 209.842 C 193.799 209.842,194.032 209.732,193.897 209.597 C 193.517 209.217,192.619 209.164,192.619 209.521 M200.927 219.156 C 201.039 219.446,201.271 219.684,201.444 219.684 C 201.616 219.684,201.757 219.446,201.757 219.156 C 201.757 218.866,201.525 218.629,201.241 218.629 C 200.927 218.629,200.804 218.835,200.927 219.156 " stroke="none" fill="#04dc6c" fill-rule="evenodd"></path><path id="path3" d="M167.663 190.158 C 167.663 190.351,167.979 190.510,168.366 190.510 C 168.752 190.510,169.069 190.351,169.069 190.158 C 169.069 189.965,168.752 189.807,168.366 189.807 C 167.979 189.807,167.663 189.965,167.663 190.158 " stroke="none" fill="#10e06c" fill-rule="evenodd"></path><path id="path4" d="M191.366 102.939 C 191.543 103.232,191.471 103.531,191.180 103.711 C 190.919 103.872,190.812 104.110,190.942 104.241 C 191.073 104.371,191.420 104.237,191.713 103.943 C 192.191 103.465,192.186 103.359,191.663 102.935 C 191.171 102.536,191.124 102.537,191.366 102.939 M190.240 106.854 C 190.240 107.531,190.312 107.808,190.400 107.469 C 190.489 107.131,190.489 106.577,190.400 106.239 C 190.312 105.901,190.240 106.178,190.240 106.854 M184.710 112.457 C 187.826 112.651,187.872 112.667,187.790 113.533 C 187.710 114.368,187.724 114.376,188.081 113.678 C 188.288 113.275,188.879 112.778,189.395 112.574 C 190.127 112.283,189.367 112.208,185.940 112.230 C 181.647 112.259,181.619 112.264,184.710 112.457 M169.575 122.484 C 169.200 122.768,169.051 123.000,169.244 123.000 C 169.438 123.000,169.903 122.768,170.278 122.484 C 170.653 122.201,170.802 121.968,170.609 121.968 C 170.416 121.968,169.950 122.201,169.575 122.484 M112.235 160.105 C 112.237 161.265,112.303 161.698,112.381 161.066 C 112.460 160.434,112.458 159.485,112.378 158.957 C 112.297 158.429,112.233 158.946,112.235 160.105 M113.538 169.353 C 113.535 169.611,113.354 169.703,113.127 169.562 C 112.873 169.406,112.816 169.466,112.975 169.723 C 113.115 169.949,113.363 170.052,113.527 169.951 C 113.690 169.850,113.883 169.944,113.955 170.159 C 114.034 170.396,114.289 170.301,114.600 169.918 C 114.989 169.439,114.998 169.355,114.636 169.573 C 114.341 169.751,114.039 169.675,113.850 169.377 C 113.609 168.997,113.542 168.992,113.538 169.353 M151.879 189.434 C 151.556 189.634,151.535 189.790,151.808 189.959 C 152.022 190.091,152.208 189.993,152.222 189.740 C 152.235 189.486,152.382 189.596,152.548 189.982 C 152.795 190.556,152.855 190.576,152.875 190.091 C 152.906 189.346,152.479 189.064,151.879 189.434 M277.733 194.084 C 277.704 194.600,277.589 195.311,277.478 195.665 C 277.287 196.274,277.298 196.275,277.676 195.685 C 277.896 195.342,278.011 194.630,277.931 194.104 L 277.785 193.146 277.733 194.084 M171.036 198.539 C 170.698 199.085,171.423 200.002,172.187 199.995 C 172.649 199.990,172.666 199.930,172.275 199.682 C 171.993 199.504,171.905 199.190,172.066 198.931 C 172.237 198.653,172.199 198.573,171.965 198.718 C 171.758 198.845,171.525 198.759,171.448 198.526 C 171.339 198.199,171.244 198.202,171.036 198.539 M181.722 200.703 C 181.722 201.090,181.880 201.406,182.074 201.406 C 182.267 201.406,182.425 201.090,182.425 200.703 C 182.425 200.316,182.267 200.000,182.074 200.000 C 181.880 200.000,181.722 200.316,181.722 200.703 M277.132 210.018 C 277.132 215.624,277.181 217.868,277.240 215.005 C 277.299 212.142,277.299 207.555,277.240 204.812 C 277.181 202.069,277.132 204.411,277.132 210.018 M181.101 201.406 C 181.101 202.083,181.173 202.359,181.262 202.021 C 181.350 201.683,181.350 201.129,181.262 200.791 C 181.173 200.453,181.101 200.729,181.101 201.406 M182.625 204.035 C 182.683 204.804,182.900 205.489,183.106 205.558 C 183.311 205.626,183.480 205.983,183.480 206.349 C 183.480 206.768,183.807 207.099,184.359 207.237 C 184.842 207.358,185.237 207.599,185.237 207.771 C 185.237 207.943,185.554 208.084,185.940 208.084 C 186.718 208.084,186.893 208.628,186.204 208.906 C 185.962 209.004,186.107 209.096,186.527 209.111 C 187.498 209.146,188.401 208.803,188.401 208.398 C 188.401 208.226,188.005 208.084,187.522 208.084 C 187.039 208.084,186.643 207.926,186.643 207.733 C 186.643 207.540,186.384 207.381,186.066 207.381 C 185.447 207.381,183.480 205.512,183.480 204.924 C 183.480 204.729,183.332 204.569,183.151 204.569 C 182.969 204.569,182.753 204.134,182.670 203.603 C 182.586 203.071,182.566 203.265,182.625 204.035 M181.396 203.866 C 181.308 206.015,182.848 208.216,184.710 208.603 L 185.764 208.822 184.710 208.326 C 183.256 207.641,182.451 206.651,181.893 204.862 C 181.632 204.024,181.408 203.576,181.396 203.866 M189.982 208.950 C 189.402 209.216,189.165 209.448,189.455 209.467 C 189.745 209.485,190.338 209.595,190.773 209.712 C 191.278 209.847,191.564 209.768,191.564 209.494 C 191.564 209.239,191.328 209.154,190.987 209.285 C 190.505 209.470,190.483 209.419,190.854 208.971 C 191.386 208.331,191.338 208.330,189.982 208.950 M277.556 225.132 C 277.679 226.098,277.836 226.955,277.905 227.036 C 278.206 227.385,277.987 224.377,277.677 223.902 C 277.442 223.542,277.404 223.932,277.556 225.132 M239.569 238.270 C 239.339 238.642,240.344 239.563,240.648 239.258 C 240.763 239.143,240.611 238.803,240.310 238.503 C 240.010 238.202,239.676 238.097,239.569 238.270 " stroke="none" fill="#04e46c" fill-rule="evenodd"></path></g></svg>